<svg width="9" height="10" viewBox="0 0 9 10" fill="none" xmlns="http://www.w3.org/2000/svg">
<path d="M8.94 4.71807C8.9043 4.62601 8.85078 4.5419 8.7825 4.47057L5.0325 0.720569C4.96257 0.65064 4.87955 0.595169 4.78819 0.557324C4.69682 0.519479 4.59889 0.5 4.5 0.5C4.30027 0.5 4.10873 0.579341 3.9675 0.720569C3.89757 0.790498 3.8421 0.873515 3.80425 0.964882C3.76641 1.05625 3.74693 1.15417 3.74693 1.25307C3.74693 1.4528 3.82627 1.64434 3.9675 1.78557L6.4425 4.25307H0.75C0.551088 4.25307 0.360322 4.33209 0.21967 4.47274C0.0790178 4.61339 0 4.80416 0 5.00307C0 5.20198 0.0790178 5.39275 0.21967 5.5334C0.360322 5.67405 0.551088 5.75307 0.75 5.75307H6.4425L3.9675 8.22057C3.8972 8.29029 3.84141 8.37324 3.80333 8.46464C3.76525 8.55603 3.74565 8.65406 3.74565 8.75307C3.74565 8.85208 3.76525 8.95011 3.80333 9.0415C3.84141 9.1329 3.8972 9.21585 3.9675 9.28557C4.03722 9.35586 4.12017 9.41166 4.21157 9.44974C4.30296 9.48781 4.40099 9.50742 4.5 9.50742C4.59901 9.50742 4.69704 9.48781 4.78843 9.44974C4.87983 9.41166 4.96278 9.35586 5.0325 9.28557L8.7825 5.53557C8.85078 5.46424 8.9043 5.38013 8.94 5.28807C9.01501 5.10547 9.01501 4.90067 8.94 4.71807Z" fill="#1D3C34"/>
</svg>
