<svg width="145" height="160" viewBox="0 0 145 160" fill="none" xmlns="http://www.w3.org/2000/svg">
<circle cx="72.9863" cy="77" r="50" fill="white"/>
<g clip-path="url(#clip0_3461_116424)">
<path fill-rule="evenodd" clip-rule="evenodd" d="M58.8841 89.2191C58.189 88.9803 57.5659 89.0231 56.5676 89.2587L55.9438 89.4161L55.4595 89.5403C55.0154 89.651 54.8195 89.6858 54.7484 89.6785L54.7073 89.6707C54.5896 89.6404 54.3149 89.5257 53.7809 89.2724L53.1808 88.9895C52.1152 88.4996 51.5189 88.3296 50.7486 88.4386C49.9583 88.5508 49.4492 88.8784 48.5481 89.6822L47.8478 90.317L47.7774 90.3798C47.5505 90.5784 47.3946 90.6942 47.3414 90.7254L47.3263 90.7323C47.3204 90.7347 47.2582 90.7476 47.152 90.7613L47.0954 90.7672C46.9986 90.7777 46.8905 90.7856 46.7552 90.7917L45.6853 90.8257C44.4576 90.8721 43.8617 90.987 43.2155 91.4515C42.5382 91.9382 42.2423 92.5039 41.8096 93.7243L41.6108 94.2917C41.4316 94.7948 41.3341 95.0214 41.2959 95.066L41.2685 95.0922C41.1823 95.164 40.9338 95.3166 40.388 95.6201L39.9699 95.8526C38.9342 96.4389 38.3785 96.8614 38.0223 97.5879C37.6869 98.2758 37.6693 98.8941 37.8199 99.966L37.9826 101.019C38.0464 101.454 38.0618 101.649 38.0505 101.704C38.037 101.768 37.9018 102.01 37.5485 102.558L37.388 102.805C36.6344 103.972 36.3394 104.579 36.376 105.446C36.4089 106.282 36.7098 106.827 37.525 107.921L37.8727 108.387C38.1864 108.81 38.3143 109.003 38.3456 109.082L38.3511 109.097C38.3659 109.149 38.3677 109.355 38.342 109.759L38.2729 110.689C38.1928 111.888 38.2482 112.497 38.6508 113.188C39.0477 113.87 39.5493 114.225 40.6308 114.767L41.4542 115.172C41.8672 115.378 42.0635 115.494 42.1107 115.543C42.1659 115.6 42.2811 115.823 42.5404 116.41L42.7883 116.974C42.8309 117.068 42.8692 117.152 42.9096 117.238C43.3203 118.106 43.6968 118.665 44.3087 119.054C44.9514 119.462 45.566 119.558 46.6808 119.556L47.8314 119.542C48.2122 119.542 48.3899 119.555 48.4528 119.576L48.4914 119.593C48.5692 119.635 48.7138 119.736 48.9645 119.932L49.5571 120.406C50.6227 121.267 51.2007 121.631 52.0434 121.712C52.7126 121.777 53.3131 121.6 54.0816 121.229L54.2621 121.139C54.4031 121.068 54.5387 120.997 54.7202 120.899L55.261 120.608C55.6851 120.384 55.8672 120.303 55.9377 120.293L55.9802 120.291C56.0973 120.294 56.3843 120.339 56.9099 120.45L57.5797 120.59C58.7645 120.827 59.3772 120.856 60.1096 120.563C60.8891 120.252 61.313 119.775 62.0451 118.678L62.4556 118.058C62.5575 117.907 62.6325 117.802 62.7049 117.707L62.8283 117.557C62.8393 117.544 62.8508 117.531 62.8628 117.519L62.8943 117.502C62.9816 117.458 63.2047 117.385 63.677 117.253L64.4199 117.048C65.6047 116.713 66.1483 116.462 66.6646 115.853C67.1996 115.223 67.3524 114.596 67.4714 113.339L67.5474 112.509C67.5857 112.139 67.6153 111.953 67.6373 111.889L67.643 111.874C67.6699 111.82 67.8197 111.659 68.193 111.306L68.6053 110.92C69.5795 110.009 70.0185 109.481 70.1924 108.646C70.3501 107.903 70.201 107.26 69.8014 106.27L69.629 105.856L69.4862 105.52C69.2457 104.95 69.1633 104.715 69.161 104.648L69.164 104.612C69.1808 104.5 69.2673 104.197 69.467 103.612L69.5214 103.452C69.978 102.104 70.1155 101.451 69.8673 100.611C69.6328 99.8133 69.2039 99.3481 68.1665 98.486L67.5607 97.9853C67.4186 97.8654 67.3147 97.7726 67.2274 97.6887L67.1229 97.583C67.1033 97.5628 67.0847 97.5416 67.0673 97.5195L67.0519 97.4812C67.0173 97.3694 66.9883 97.2559 66.9651 97.1412L66.9111 96.8663L66.817 96.3169C66.5723 94.8669 66.391 94.2387 65.7805 93.6057C65.2135 93.0182 64.6075 92.7915 63.3483 92.5048L62.45 92.3014C62.0898 92.2144 61.918 92.1605 61.8635 92.1252L61.8303 92.0999C61.7535 92.0316 61.6035 91.857 61.3211 91.4935L60.937 90.9923L60.6871 90.6742C60.0454 89.8757 59.5793 89.458 58.8841 89.2191ZM46.6702 124.814L46.689 124.82C46.7918 124.857 46.8904 124.904 46.9833 124.961L47.0144 124.981L47.0977 125.039C47.1651 125.09 47.2283 125.145 47.2867 125.206L47.2474 125.167C47.2863 125.204 47.3231 125.244 47.3579 125.285L47.3735 125.304C47.39 125.325 47.4059 125.345 47.4215 125.366L47.4306 125.38C47.4428 125.396 47.4539 125.412 47.4645 125.429L47.4877 125.465L47.5212 125.521L47.5325 125.543C47.5543 125.582 47.574 125.622 47.5914 125.663C47.5995 125.682 47.6073 125.701 47.6146 125.72L47.6268 125.752C47.6762 125.889 47.7073 126.035 47.7165 126.185L47.7168 126.199C47.7203 126.269 47.7195 126.337 47.7141 126.407L46.9043 137.919L50.8638 136.042C51.0697 135.944 51.2946 135.893 51.5225 135.892C51.7504 135.892 51.9757 135.941 52.1822 136.038L52.2847 136.09L56.3534 138.374L55.7272 124.294C55.7095 123.901 55.8419 123.517 56.0975 123.218C56.353 122.919 56.7126 122.729 57.1033 122.686L57.2048 122.678C57.5976 122.661 57.9822 122.793 58.2809 123.049C58.5795 123.304 58.7696 123.664 58.8127 124.055L58.8204 124.156L59.5706 141.018C59.6231 142.198 58.3946 142.987 57.3526 142.482L57.2667 142.437L51.4674 139.181L45.8379 141.852C44.7996 142.344 43.621 141.575 43.6261 140.451L43.6303 140.345L44.257 131.425L38.7784 138.756C38.0973 139.667 36.7115 139.551 36.18 138.572L36.133 138.478L33.6345 133.067L27.4238 132.18C26.2681 132.015 25.7151 130.686 26.3781 129.754L26.4382 129.675L36.9283 116.676C37.1809 116.364 37.5446 116.163 37.9428 116.114C38.341 116.065 38.7426 116.173 39.063 116.414C39.3833 116.656 39.5973 117.012 39.66 117.409C39.7227 117.805 39.6291 118.21 39.3989 118.539L39.3378 118.62L30.5575 129.5L34.9057 130.121C35.1428 130.155 35.369 130.243 35.5662 130.379C35.7634 130.515 35.9264 130.695 36.0422 130.905L36.0923 131.005L37.8542 134.821L44.9308 125.352C45.0027 125.257 45.0853 125.169 45.177 125.092L45.1963 125.076C45.2642 125.021 45.3362 124.972 45.411 124.93L45.436 124.916C45.4773 124.893 45.5199 124.873 45.5637 124.855L45.6204 124.832L45.6444 124.823C45.7554 124.783 45.872 124.755 45.9924 124.741L46.0146 124.739C46.168 124.723 46.3229 124.73 46.4742 124.76L46.5124 124.769C46.533 124.774 46.5537 124.778 46.5751 124.784L46.5912 124.789C46.6139 124.795 46.6362 124.802 46.6585 124.809L46.6704 124.813L46.6702 124.814ZM57.871 92.1675L57.9502 92.2455C58.0541 92.351 58.1719 92.4866 58.3227 92.6755L59.0076 93.5624C59.5196 94.216 59.7642 94.4587 60.2013 94.7377C60.6493 95.0217 61.0119 95.1482 61.8493 95.342L62.4933 95.4859C62.9307 95.5829 63.1891 95.6489 63.3962 95.7201L63.5311 95.7708L63.5342 95.7802C63.5471 95.8163 63.561 95.8591 63.575 95.9071L63.6105 96.0399C63.6396 96.1564 63.6678 96.2924 63.7001 96.4678L63.8217 97.1757C63.8453 97.312 63.8657 97.4262 63.8865 97.5355C64.0119 98.1972 64.1467 98.6578 64.3938 99.0815C64.6438 99.51 64.9495 99.8295 65.5055 100.302L66.2544 100.923C66.4973 101.126 66.6501 101.263 66.7741 101.392L66.825 101.445L66.8656 101.491L66.8472 101.592L66.8136 101.736C66.7741 101.888 66.7181 102.071 66.6336 102.325L66.5365 102.613C66.1755 103.671 66.0554 104.104 66.0641 104.674L66.0672 104.771C66.09 105.351 66.1943 105.686 66.6104 106.67L66.865 107.27L66.9181 107.398C67.0001 107.602 67.0589 107.763 67.0985 107.896L67.1279 108.002L67.0853 108.056C66.9607 108.202 66.8283 108.34 66.6887 108.472L65.885 109.226C65.3057 109.78 65.0895 110.049 64.8631 110.511C64.5991 111.05 64.5312 111.44 64.4339 112.545L64.3812 113.132C64.3576 113.367 64.3348 113.538 64.3077 113.68L64.2748 113.831L64.159 113.88L64.028 113.929C63.8426 113.994 63.6078 114.063 63.2371 114.163L62.6253 114.331C61.827 114.557 61.5179 114.683 61.122 114.958L61.0557 115.005C60.625 115.315 60.3474 115.647 59.8882 116.328L59.4094 117.049C59.2475 117.29 59.1339 117.445 59.027 117.571L58.9818 117.623L58.9454 117.663L58.8761 117.659L58.8033 117.653C58.6316 117.636 58.4351 117.604 58.1433 117.545L57.3314 117.375C56.5087 117.206 56.0885 117.157 55.5958 117.215L55.4962 117.228C54.9467 117.308 54.6314 117.433 53.7784 117.888L53.0061 118.304L52.8675 118.375L52.7619 118.428C52.6493 118.484 52.5342 118.534 52.4169 118.579L52.3413 118.605L52.2805 118.571L52.223 118.536C52.0098 118.396 51.8045 118.245 51.6079 118.083L50.9873 117.583C50.3208 117.052 50.0051 116.846 49.5422 116.678L49.4589 116.648C48.9205 116.463 48.5414 116.433 47.5237 116.448L47.0181 116.457C46.7424 116.465 46.4665 116.461 46.1911 116.445L46.0514 116.43L45.9827 116.42L45.9785 116.414C45.8974 116.288 45.8246 116.157 45.7605 116.021L45.6442 115.775L45.2327 114.843C44.8791 114.058 44.7058 113.774 44.3386 113.393C43.9862 113.028 43.6506 112.81 42.9503 112.457L41.9492 111.964C41.7764 111.876 41.6459 111.805 41.5352 111.738L41.4097 111.658L41.3536 111.619L41.3471 111.532L41.3454 111.496C41.3407 111.32 41.3447 111.143 41.3573 110.967L41.4302 109.992C41.487 109.168 41.4714 108.735 41.3211 108.223L41.2736 108.07C41.1102 107.578 40.8965 107.256 40.2234 106.359L39.9606 106.009C39.8333 105.84 39.7131 105.667 39.6002 105.488L39.5278 105.366L39.5038 105.32L39.539 105.243C39.6185 105.08 39.7307 104.889 39.9159 104.599L40.3469 103.93C40.8104 103.198 40.9708 102.864 41.081 102.338L41.1135 102.166C41.188 101.718 41.1649 101.346 41.0432 100.548L40.9374 99.8794L40.8851 99.5277C40.8609 99.3637 40.845 99.1986 40.8375 99.033L40.8366 98.9635L40.8609 98.9446C40.9809 98.8538 41.1444 98.7489 41.3734 98.6163L41.7632 98.3975L42.324 98.0839C43.0133 97.6914 43.2897 97.4889 43.6029 97.1314L43.6587 97.0669C44.0182 96.6429 44.1924 96.2764 44.5021 95.4026L44.6701 94.9211C44.8147 94.5057 44.9075 94.2673 44.9987 94.0792L45.0451 93.9885L45.1768 93.9672L45.3159 93.9502C45.4387 93.9379 45.5808 93.929 45.7622 93.9215L46.488 93.8994C47.4427 93.8721 47.9441 93.8199 48.4758 93.6073C48.9281 93.4265 49.3164 93.1475 49.8176 92.7082L50.5451 92.0496C50.7774 91.8408 50.9311 91.7128 51.0725 91.6097L51.1309 91.5689L51.1909 91.5292L51.2024 91.5326C51.2395 91.5428 51.2819 91.5561 51.3298 91.5719C51.4909 91.6273 51.6744 91.7043 51.9386 91.8255L52.7823 92.2245C53.5165 92.5656 53.8815 92.6942 54.3595 92.7506L54.4513 92.7606C55.0255 92.8158 55.3852 92.7586 56.4051 92.4955L56.9466 92.3542C57.3167 92.2594 57.565 92.2051 57.7605 92.1809L57.871 92.1675ZM55.1945 99.9548C56.6182 100.444 57.7892 101.479 58.45 102.831C59.1108 104.184 59.2071 105.744 58.7179 107.167C58.2287 108.591 57.194 109.762 55.8414 110.423C54.4888 111.083 52.9292 111.18 51.5055 110.691C50.0818 110.201 48.9108 109.167 48.25 107.814C47.5893 106.462 47.4929 104.902 47.9821 103.478C48.4713 102.055 49.506 100.884 50.8586 100.223C52.2112 99.562 53.7709 99.4656 55.1945 99.9548ZM56.2006 97.0268C51.6186 95.4524 46.6284 97.8906 45.0541 102.472C43.4798 107.054 45.9173 112.044 50.4994 113.619C55.0809 115.193 60.0716 112.755 61.6459 108.173C63.2202 103.592 60.7821 98.6011 56.2006 97.0268Z" fill="#00B373"/>
</g>
<g clip-path="url(#clip1_3461_116424)">
<path fill-rule="evenodd" clip-rule="evenodd" d="M123.177 74.6576L123.431 74.7548C123.984 74.9734 124.531 75.2055 125.073 75.4508C126.474 76.085 127.876 76.814 129.193 77.6318C132.199 79.4978 134.34 81.5432 135.229 83.8646C136.284 86.6126 136.487 88.7468 136.419 93.089L136.395 94.601L136.392 95.1644C136.392 95.575 136.229 95.9687 135.939 96.259C135.648 96.5493 135.255 96.7124 134.844 96.7124C134.434 96.7124 134.04 96.5493 133.75 96.259C133.459 95.9687 133.296 95.575 133.296 95.1644L133.303 94.2452L133.327 92.7518C133.377 88.9898 133.188 87.188 132.339 84.9728C131.749 83.4332 130.042 81.8024 127.561 80.2622C126.369 79.5224 125.083 78.854 123.796 78.2714L123.418 78.1034L122.843 79.3142L122.496 80.0342C121.331 82.457 120.121 84.8586 118.869 87.2378C118.46 88.0132 118.043 88.7849 117.619 89.5526L117.376 89.9906C116.029 92.4056 114.829 94.349 113.805 95.7326C113.661 95.927 113.474 96.085 113.258 96.1939C113.042 96.3027 112.803 96.3595 112.561 96.3595C112.319 96.3595 112.081 96.3027 111.865 96.1939C111.648 96.085 111.461 95.927 111.317 95.7326C110.293 94.3484 109.093 92.405 107.745 89.9888L107.257 89.1056C106.929 88.5056 106.594 87.8816 106.253 87.2378C105.001 84.8588 103.791 82.4574 102.625 80.0348L101.95 78.6266L101.703 78.1034L101.326 78.2714C100.039 78.8534 98.7536 79.5218 97.562 80.2616C95.0804 81.8024 93.374 83.4326 92.7848 84.9734C91.8812 87.329 91.523 91.6388 91.4468 97.5446L91.4348 98.681H135.284C135.678 98.681 136.056 98.8309 136.344 99.1003C136.631 99.3697 136.804 99.7383 136.829 100.131L136.832 100.23C136.832 100.623 136.682 101.002 136.412 101.289C136.143 101.576 135.775 101.749 135.382 101.774L135.284 101.778H89.882C89.6786 101.778 89.4773 101.738 89.2895 101.66C89.1016 101.582 88.9309 101.468 88.7872 101.324C88.6434 101.18 88.5294 101.009 88.4516 100.822C88.3739 100.634 88.3339 100.432 88.334 100.229L88.337 98.975C88.3718 91.8554 88.7258 86.9096 89.8934 83.8652C90.7826 81.5426 92.9234 79.4972 95.9294 77.6312C97.2458 76.8134 98.648 76.0844 100.05 75.4502C100.441 75.2726 100.812 75.113 101.155 74.9702L101.768 74.7242L101.944 74.657C102.31 74.5223 102.713 74.5306 103.073 74.68C103.433 74.8295 103.723 75.1093 103.886 75.4634L104.298 76.3454L104.906 77.633C105.014 77.8598 105.126 78.0914 105.24 78.329L105.413 78.689C106.562 81.0775 107.754 83.4451 108.989 85.7906L109.485 86.7212C109.801 87.3099 110.122 87.8961 110.448 88.4798L110.865 89.2196C111.306 89.9982 111.761 90.7687 112.23 91.5308L112.56 92.0582L112.708 91.8248C113.261 90.9428 113.86 89.927 114.498 88.7936L114.672 88.4816C115.169 87.5901 115.655 86.6931 116.131 85.7906C117.21 83.7431 118.255 81.6782 119.267 79.5968L119.707 78.689C119.941 78.2042 120.164 77.7392 120.373 77.2976L121.075 75.809L121.235 75.464C121.398 75.11 121.688 74.8304 122.048 74.6809C122.407 74.5314 122.81 74.5231 123.176 74.6576H123.177ZM112.678 49.1468C121.722 49.1468 126.475 58.4126 123.056 66.6608C122.899 67.0401 122.597 67.3414 122.218 67.4983C121.838 67.6553 121.412 67.6551 121.033 67.4978C120.653 67.3405 120.352 67.039 120.195 66.6596C120.038 66.2801 120.038 65.8539 120.196 65.4746C122.834 59.111 119.311 52.2428 112.678 52.2428C109.477 52.2428 107.007 53.7488 105.383 56.3576C103.975 58.6196 103.383 61.5266 103.771 63.6518C104.721 68.8658 108.226 72.659 114.16 76.0556C114.336 76.1566 114.491 76.2914 114.615 76.4522C114.74 76.6131 114.831 76.7968 114.884 76.993C114.938 77.1892 114.952 77.3939 114.926 77.5956C114.9 77.7972 114.835 77.9918 114.734 78.1682C114.633 78.3446 114.498 78.4994 114.337 78.6237C114.177 78.7481 113.993 78.8395 113.797 78.8928C113.6 78.9462 113.396 78.9603 113.194 78.9345C112.992 78.9087 112.798 78.8434 112.621 78.7424C105.974 74.9372 101.871 70.4978 100.725 64.2074C100.197 61.3112 100.947 57.6248 102.755 54.7214C104.921 51.2414 108.357 49.1474 112.679 49.1474L112.678 49.1468ZM113.048 42.953C118.831 42.953 123.099 45.3086 125.978 49.199C126.935 50.498 127.712 51.921 128.286 53.429C128.358 53.6168 128.423 53.7956 128.482 53.966L128.59 54.2858L128.68 54.3008C131.943 54.8696 134.204 57.5756 134.509 60.8636L134.523 61.0436C134.766 64.4918 132.778 67.3382 129.339 67.9796L129.117 68.0168L129.056 68.225C128.902 68.726 128.699 69.2108 128.45 69.6722L128.318 69.9062C126.431 73.1186 122.793 74.204 117.456 72.275C116.99 72.5516 116.449 72.6746 115.909 72.6264C115.369 72.5782 114.858 72.3613 114.449 72.0065C114.039 71.6517 113.752 71.1769 113.627 70.6496C113.503 70.1223 113.548 69.5691 113.755 69.0686C113.963 68.5681 114.322 68.1456 114.783 67.861C115.245 67.5765 115.784 67.4443 116.324 67.4833C116.864 67.5223 117.379 67.7304 117.794 68.0782C118.21 68.4259 118.505 68.8957 118.639 69.4208C122.499 70.8272 124.573 70.1708 125.649 68.3378C125.895 67.9184 126.072 67.4576 126.186 66.995L126.229 66.8072C126.253 66.692 126.269 66.5978 126.278 66.5306L126.287 66.4502C126.316 66.0608 126.492 65.6968 126.778 65.4312C127.064 65.1655 127.44 65.018 127.831 65.018C130.305 65.018 131.59 63.4706 131.435 61.2614C131.276 59.0066 129.672 57.2864 127.387 57.2864C127.048 57.2864 126.719 57.1752 126.449 56.9699C126.179 56.7647 125.985 56.4766 125.895 56.15L125.832 55.886C125.71 55.4285 125.564 54.9778 125.394 54.536C124.92 53.2901 124.28 52.1142 123.49 51.0404C121.17 47.9072 117.803 46.049 113.047 46.049C108.035 46.049 104.469 47.8598 102.011 50.8946C101.188 51.9139 100.511 53.0435 100.001 54.2504C99.866 54.5684 99.7538 54.8654 99.6626 55.1384L99.5978 55.337C99.5672 55.434 99.5385 55.5316 99.512 55.6298L99.497 55.688C99.4183 56.0291 99.2263 56.3335 98.9523 56.5514C98.6784 56.7694 98.3387 56.888 97.9886 56.888C95.516 56.888 93.7742 58.7084 93.5852 61.076C93.4004 63.3884 94.7624 65.018 97.4138 65.018C97.6171 65.018 97.8184 65.058 98.0062 65.1358C98.194 65.2136 98.3646 65.3277 98.5084 65.4714C98.6521 65.6151 98.7662 65.7858 98.844 65.9736C98.9217 66.1614 98.9618 66.3627 98.9618 66.566C98.9618 66.7693 98.9217 66.9706 98.844 67.1584C98.7662 67.3462 98.6521 67.5169 98.5084 67.6606C98.3646 67.8044 98.194 67.9184 98.0062 67.9962C97.8184 68.074 97.6171 68.114 97.4138 68.114C92.8808 68.114 90.176 64.8764 90.4988 60.83C90.7766 57.356 93.188 54.488 96.6626 53.9018L96.8216 53.8766L96.8768 53.7266C96.9368 53.5676 97.0028 53.399 97.0748 53.2226L97.1504 53.0426C97.7733 51.5692 98.5997 50.1903 99.6056 48.9464C102.634 45.2066 107.071 42.953 113.047 42.953H113.048Z" fill="#00B373"/>
</g>
<g clip-path="url(#clip2_3461_116424)">
<path fill-rule="evenodd" clip-rule="evenodd" d="M17.4787 44.1675C18.2192 45.7563 19.2071 47.4378 20.2083 48.8L20.3387 48.5176C21.9778 44.9813 25.4721 43.7612 28.5164 45.2139C30.1061 45.973 31.2248 47.2946 31.6926 48.8805C33.2281 48.1794 34.9896 48.1904 36.6218 48.9697C38.2114 49.7282 39.3294 51.05 39.7976 52.6352C41.3329 51.9335 43.0946 51.945 44.7269 52.7243C46.4822 53.562 47.6625 55.0866 48.0272 56.895C49.4525 56.3832 51.0354 56.4596 52.5127 57.1647C55.4757 58.5788 56.8011 61.9509 55.3301 65.3406L55.2491 65.5224L54.1122 67.9779C52.5124 71.4277 49.0141 72.6633 45.9656 71.2933C44.5148 70.6411 43.4525 69.5289 42.9062 68.1647C41.2636 69.1295 39.2767 69.2427 37.4516 68.4223C35.8032 67.6809 34.6562 66.3447 34.1988 64.7211C32.6863 65.3889 30.9539 65.3909 29.3474 64.668C27.6981 63.9263 26.551 62.5895 26.0938 60.9646C24.5807 61.6345 22.8486 61.6357 21.241 60.9132C18.2168 59.5535 16.8805 56.1938 18.3909 52.7212L18.4731 52.5377L18.7518 51.9383C17.2527 50.2117 15.7434 47.7724 14.6726 45.4765C14.5867 45.2922 14.5379 45.0929 14.529 44.8898C14.5201 44.6866 14.5513 44.4838 14.6208 44.2927C14.6903 44.1016 14.7968 43.9261 14.9341 43.7762C15.0714 43.6263 15.2369 43.5049 15.4212 43.419C15.6054 43.333 15.8048 43.2842 16.0079 43.2753C16.2111 43.2664 16.4139 43.2976 16.605 43.3671C16.796 43.4366 16.9715 43.5431 17.1215 43.6804C17.2714 43.8178 17.3928 43.9833 17.4787 44.1675ZM23.1396 19.8954C23.6321 20.1231 23.9475 20.5769 24.0208 21.0766C27.4451 19.4911 31.3626 18.8393 35.3305 19.2381C39.2714 15.1561 44.5378 12.7174 50.0055 12.6212C50.416 12.6141 50.8126 12.7703 51.1079 13.0555C51.4032 13.3407 51.5732 13.7316 51.5803 14.1421C51.5875 14.5526 51.4313 14.9492 51.146 15.2445C50.8608 15.5398 50.47 15.7098 50.0595 15.7169C45.2367 15.8015 40.5544 18.0657 37.1248 21.8515C35.8015 23.3149 34.6964 24.9615 33.8434 26.7404L33.7145 27.0113L30.4057 34.1553C29.2591 36.6298 29.9658 38.4278 31.7428 39.044C33.5885 39.6837 35.7379 38.7625 36.9175 36.3833L37.4576 35.2247L39.9548 29.8355C41.7515 25.957 47.255 23.494 51.3113 25.2229L53.7931 26.3706L65.9726 32.0137C65.8556 30.3247 65.5227 28.4062 65.0619 26.7174C64.9583 26.3378 65.0032 25.933 65.1874 25.5853C65.3717 25.2375 65.6814 24.973 66.0536 24.8455L66.1473 24.8169C66.3435 24.7633 66.5482 24.7489 66.7499 24.7745C66.9516 24.8001 67.1463 24.8651 67.3229 24.966C67.4994 25.0668 67.6544 25.2014 67.7789 25.3621C67.9034 25.5229 67.9951 25.7066 68.0486 25.9027C68.7151 28.3424 69.1386 31.1754 69.1125 33.469L69.7157 33.7476C73.2523 35.3859 74.4707 38.8809 73.0171 41.9261C72.2849 43.46 71.0271 44.5559 69.5145 45.0511L69.4771 45.0623L69.5363 45.1767C70.3052 46.7314 70.3664 48.5086 69.6499 50.1658L69.5784 50.3262C68.7377 52.1325 67.1719 53.3279 65.2879 53.6884L65.1591 53.71L65.1795 53.7537C65.7057 54.9514 65.8682 56.2555 65.6236 57.5403L65.588 57.715C65.0944 59.959 63.4676 61.5333 61.3115 61.9329L61.1065 61.9665L61.1202 62.035C61.484 64.0744 60.8349 66.1191 59.33 67.6251L59.2062 67.7459C58.9152 68.0227 58.528 68.1755 58.1264 68.1721C57.7249 68.1687 57.3403 68.0094 57.054 67.7278C56.7677 67.4462 56.602 67.0644 56.592 66.6629C56.5819 66.2615 56.7282 65.8718 57.0001 65.5762L57.0712 65.5035C58.2341 64.3964 58.4817 62.7815 57.5662 61.2715L57.4796 61.1346C56.7168 59.9713 57.7547 58.4883 59.0853 58.7691L59.1763 58.7907C60.9995 59.282 62.2417 58.5165 62.5641 57.0499C62.9154 55.4531 62.0262 53.6939 59.98 52.6747L59.8068 52.5912L59.7881 52.5821L53.8253 49.8191C53.4616 49.6505 53.1775 49.3473 53.0328 48.9734C52.8881 48.5994 52.8941 48.184 53.0496 47.8144C53.2051 47.4449 53.4979 47.1501 53.8664 46.992C54.2349 46.834 54.6503 46.8251 55.0252 46.9673L55.1271 47.0098L61.1091 49.7816L61.1272 49.791L62.0774 50.2299C64.2411 51.2329 66.0392 50.5945 66.7706 49.02C67.485 47.4844 66.8619 45.7522 64.8118 44.7345L64.6593 44.6619L63.6875 44.2112L57.7064 41.4402C57.3409 41.2727 57.0549 40.9695 56.909 40.5949C56.7631 40.2202 56.7687 39.8035 56.9245 39.4329C57.0804 39.0623 57.3743 38.7669 57.7442 38.6091C58.114 38.4514 58.5307 38.4437 58.906 38.5878L59.0081 38.6309L64.9879 41.4017L65.9612 41.8532C67.85 42.7288 69.5038 42.0993 70.2236 40.5924C70.9404 39.0897 70.3739 37.4646 68.4137 36.5563L66.9157 35.8627C66.8813 35.8482 66.8474 35.8325 66.8141 35.8156L50.1942 28.1141C47.7582 26.9854 43.9034 28.6776 42.7645 31.1365L39.8071 37.517C37.9877 41.4434 34.1408 43.152 30.7289 41.969C27.2387 40.759 25.7423 37.074 27.5102 33.0456L27.5971 32.8539L30.9054 25.7101C31.4693 24.4928 32.1348 23.3252 32.8949 22.2198C28.8812 22.2537 25.062 23.529 22.082 25.8591L14.9155 41.3255C14.7468 41.6892 14.4436 41.9733 14.0697 42.118C13.6958 42.2627 13.2804 42.2567 12.9108 42.1012C12.5412 41.9457 12.2464 41.6529 12.0884 41.2844C11.9304 40.9159 11.9215 40.5005 12.0636 40.1256L12.1067 40.0235L19.4256 24.2284L19.4329 24.2136L21.0846 20.6489C21.1701 20.4644 21.2911 20.2985 21.4406 20.1607C21.5902 20.0229 21.7655 19.9159 21.9565 19.8459C22.1474 19.7759 22.3503 19.7442 22.5535 19.7526C22.7567 19.761 22.9562 19.8094 23.1407 19.8949L23.1396 19.8954ZM47.1703 61.7102L45.9969 64.2405L45.9389 64.3717C45.1305 66.2626 45.7556 67.8049 47.2345 68.4691C48.7176 69.1363 50.3391 68.5947 51.2319 66.8224L51.3023 66.6764L52.4392 64.2209C53.3148 62.3321 52.6854 60.6783 51.1786 59.9591C49.6911 59.2488 48.0824 59.7972 47.1703 61.7102ZM39.3563 57.3274L37.4923 61.3533C37.488 61.363 37.4836 61.3727 37.4793 61.3823L37.493 61.3517C36.585 63.3092 37.2028 64.9155 38.7212 65.5985C40.2036 66.2653 41.8242 65.7247 42.7167 63.9499L42.7877 63.8037L44.3336 60.4664L44.3506 60.4308L44.6526 59.78C45.5288 57.8911 44.8995 56.2379 43.392 55.5183C41.8899 54.8012 40.2642 55.368 39.3563 57.3274ZM35.2878 51.764C33.7856 51.0469 32.16 51.6137 31.2522 53.5717L31.2589 53.5585L31.2528 53.5715L31.247 53.582L29.3885 57.595C28.5038 59.5043 29.0684 61.079 30.5018 61.79L30.6164 61.8444C32.1394 62.5296 33.8081 61.9407 34.6834 60.0527L36.5472 56.0262C37.4236 54.1359 36.7945 52.4832 35.2878 51.764ZM23.2179 49.6717L23.1469 49.8198L21.2815 53.8404C20.3736 55.7998 20.9919 57.4072 22.51 58.0897C23.9932 58.7568 25.6147 58.2152 26.507 56.4418L26.5779 56.295L26.5882 56.2727L28.4437 52.2704L28.4495 52.2567L28.4437 52.2704C29.3183 50.3807 28.6891 48.7275 27.1831 48.0086C25.7193 47.3107 24.1388 47.8315 23.2181 49.6723L23.2179 49.6717Z" fill="#00B373"/>
</g>
<defs>
<clipPath id="clip0_3461_116424">
<rect width="60" height="60" fill="white" transform="translate(31.4854 77) rotate(18.9637)"/>
</clipPath>
<clipPath id="clip1_3461_116424">
<rect width="60" height="60" fill="white" transform="translate(82.334 42.353)"/>
</clipPath>
<clipPath id="clip2_3461_116424">
<rect width="60" height="60" fill="white" transform="translate(5.34961 24.6577) rotate(-20.1388)"/>
</clipPath>
</defs>
</svg>
