<svg width="146" height="160" viewBox="0 0 146 160" fill="none" xmlns="http://www.w3.org/2000/svg">
<g clip-path="url(#clip0_3461_116406)">
<circle cx="73.0127" cy="77" r="50" fill="white"/>
<g clip-path="url(#clip1_3461_116406)">
<path fill-rule="evenodd" clip-rule="evenodd" d="M14.7191 90.0503C15.0994 89.94 15.5075 89.9787 15.8603 90.1587C16.2131 90.3386 16.4841 90.6462 16.618 91.0189L16.6478 91.1127L17.3096 93.3947C17.9337 92.5597 18.6083 91.7638 19.3297 91.0114C19.6162 90.7161 20.0079 90.5462 20.4193 90.5388C20.8306 90.5315 21.2282 90.6872 21.5251 90.972C21.822 91.2569 21.9941 91.6476 22.0038 92.0589C22.0134 92.4703 21.8599 92.8687 21.5768 93.1672C20.2742 94.5252 19.1484 96.0424 18.226 97.6825L18.1711 97.7797C18.1449 97.836 18.1145 97.8904 18.081 97.9432C17.1784 99.6003 16.49 101.365 16.0324 103.196C16.0221 103.254 16.0079 103.312 15.9899 103.368C15.5467 105.202 15.3392 107.085 15.3723 108.971C15.3768 109.027 15.378 109.083 15.3759 109.139C15.4247 111.055 15.7202 112.957 16.2552 114.798C16.7999 116.676 17.5703 118.428 18.5275 120.03C18.5696 120.089 18.6068 120.151 18.64 120.216C19.6238 121.827 20.8098 123.305 22.1693 124.615C22.1992 124.64 22.2283 124.668 22.2555 124.697C27.7223 129.91 35.7009 132.201 43.485 130.079L43.8396 129.979C48.5228 128.621 52.562 129.171 55.7316 131.863C56.0423 132.131 56.2344 132.511 56.266 132.921C56.2977 133.33 56.1663 133.736 55.9006 134.049C55.6349 134.362 55.2562 134.557 54.8471 134.592C54.438 134.627 54.0316 134.499 53.7163 134.236C51.4702 132.33 48.5916 131.901 44.9617 132.898L44.7071 132.97C40.9563 134.058 38.6708 135.983 37.7732 138.861C37.6476 139.252 37.3726 139.577 37.0082 139.766C36.6437 139.955 36.2193 139.993 35.8273 139.871C35.4353 139.748 35.1075 139.476 34.9152 139.114C34.7229 138.751 34.6816 138.327 34.8005 137.934C35.2727 136.419 36.0184 135.1 37.0201 133.973C33.1721 133.878 29.3962 132.909 25.9786 131.138L21.0219 132.574C20.6333 132.687 20.2159 132.645 19.8582 132.456C19.5005 132.266 19.2305 131.945 19.1055 131.56C18.9806 131.175 19.0104 130.757 19.1887 130.393C19.367 130.03 19.6798 129.75 20.0608 129.614L20.1544 129.583L22.4387 128.921C21.7801 128.429 21.1457 127.906 20.5377 127.353L15.3833 127.459C14.9795 127.468 14.5884 127.318 14.2925 127.043C13.9966 126.769 13.8191 126.389 13.7974 125.986C13.7758 125.583 13.9117 125.187 14.1765 124.882C14.4413 124.577 14.8142 124.387 15.2166 124.352L15.3192 124.346L17.6916 124.297C17.182 123.651 16.7045 122.98 16.2606 122.287L11.2589 121.054C10.8665 120.958 10.5268 120.713 10.3115 120.371C10.0963 120.029 10.0225 119.617 10.1056 119.221C10.1888 118.826 10.4223 118.478 10.757 118.252C11.0917 118.026 11.5013 117.938 11.8992 118.008L12.0037 118.03L14.3115 118.599C13.9889 117.844 13.7027 117.074 13.4542 116.292L8.93326 113.803C8.579 113.609 8.314 113.285 8.1942 112.899C8.0744 112.513 8.10919 112.096 8.29122 111.735C8.47324 111.375 8.78826 111.099 9.16976 110.966C9.55126 110.834 9.96938 110.855 10.3358 111.024L10.4347 111.074L12.5178 112.221C12.3992 111.403 12.3208 110.584 12.2824 109.766L8.56318 106.196C8.27289 105.917 8.10243 105.535 8.08765 105.132C8.07287 104.73 8.21492 104.337 8.48393 104.036C8.75294 103.736 9.12793 103.552 9.53 103.522C9.93207 103.493 10.3299 103.621 10.6397 103.879L10.7195 103.949L12.432 105.593C12.5292 104.777 12.6661 103.965 12.8422 103.162L10.1745 98.7509C9.96559 98.4051 9.89928 97.9917 9.98955 97.5979C10.0798 97.2042 10.3196 96.8609 10.6582 96.6406C10.9969 96.4204 11.4079 96.3403 11.8044 96.4175C12.201 96.4946 12.552 96.7228 12.7834 97.054L12.8395 97.1395L14.0681 99.1721C14.3733 98.4095 14.7153 97.6621 15.0928 96.9326L13.6569 91.9796C13.5998 91.7831 13.582 91.5773 13.6045 91.3739C13.627 91.1705 13.6894 90.9736 13.7881 90.7943C13.8868 90.6151 14.0199 90.457 14.1797 90.3293C14.3395 90.2015 14.5229 90.1064 14.7195 90.0496L14.7191 90.0503ZM47.0755 80.6654C47.4557 80.5551 47.8636 80.5937 48.2162 80.7734C48.5689 80.9531 48.8399 81.2604 48.9741 81.6328L49.0046 81.727L50.4425 86.6802C51.1519 87.0946 51.8407 87.5432 52.5067 88.0244L52.4567 85.6486C52.4486 85.2448 52.5978 84.8537 52.8727 84.5578C53.1475 84.2619 53.5267 84.0844 53.93 84.0628C54.3333 84.0411 54.7292 84.1771 55.0342 84.4418C55.3391 84.7066 55.5293 85.0796 55.5645 85.4819L55.5697 85.5841L55.6771 90.7382C56.2556 91.3224 56.8052 91.9343 57.3242 92.572L57.8915 90.2677C57.9884 89.8762 58.2335 89.5376 58.5751 89.3231C58.9168 89.1087 59.3283 89.0352 59.723 89.1181C60.1177 89.201 60.4649 89.4339 60.6913 89.7676C60.9178 90.1014 61.0059 90.51 60.9371 90.9074L60.9149 91.012L59.6829 96.0173C60.0879 96.7288 60.4606 97.4622 60.7984 98.2176L61.944 96.1343C62.1378 95.7798 62.4618 95.5146 62.8476 95.3946C63.2333 95.2746 63.6506 95.3093 64.0113 95.4912C64.372 95.6732 64.6478 95.9882 64.7806 96.3698C64.9133 96.7513 64.8925 97.1696 64.7227 97.5361L64.6728 97.6355L62.1847 102.157C62.3935 102.952 62.5637 103.756 62.6948 104.566L64.3411 102.85C64.6205 102.558 65.0023 102.387 65.4059 102.371C65.8096 102.356 66.2034 102.498 66.5043 102.767C66.8052 103.037 66.9896 103.413 67.0185 103.815C67.0475 104.218 66.9187 104.617 66.6594 104.927L66.5881 105.006L63.0194 108.727C63.0151 109.549 62.9708 110.371 62.8865 111.189L64.9193 109.959C65.2651 109.749 65.6789 109.682 66.0733 109.772C66.4676 109.862 66.8114 110.102 67.032 110.441C67.2526 110.78 67.3326 111.192 67.2551 111.589C67.1776 111.986 66.9487 112.337 66.6168 112.568L66.5307 112.624L62.1198 115.292C61.903 116.084 61.6479 116.866 61.3553 117.634L63.6361 116.972C64.0239 116.862 64.4394 116.906 64.7952 117.096C65.151 117.285 65.4194 117.605 65.5439 117.989C65.6684 118.372 65.6393 118.789 65.4627 119.152C65.2861 119.514 64.9758 119.794 64.5971 119.932L64.5034 119.962L59.5536 121.399C58.1571 123.791 56.379 125.938 54.2895 127.757C53.9778 128.026 53.572 128.161 53.161 128.132C52.75 128.103 52.3673 127.912 52.0968 127.601C51.8262 127.29 51.6899 126.885 51.7177 126.474C51.7456 126.063 51.9352 125.679 52.2451 125.408C54.2066 123.701 55.8544 121.664 57.1143 119.39C57.134 119.348 57.1565 119.307 57.1806 119.268C58.091 117.601 58.7845 115.825 59.244 113.982C59.7154 112.094 59.9364 110.152 59.9015 108.206C59.8983 108.167 59.8976 108.128 59.8976 108.089C59.8535 106.161 59.5587 104.246 59.0205 102.394C58.4759 100.517 57.6993 98.7523 56.7263 97.1297C56.6984 97.0894 56.6727 97.0477 56.6494 97.0046C55.6668 95.3892 54.4815 93.9063 53.1224 92.5918C53.0801 92.5562 53.0399 92.5182 53.0019 92.4781C51.6303 91.1694 50.0969 90.0416 48.4389 89.1224C46.7119 88.1645 44.8653 87.4403 42.9476 86.9686C42.7481 86.9206 42.56 86.8337 42.3942 86.7128C42.2284 86.5919 42.0881 86.4394 41.9814 86.2641C41.8748 86.0888 41.8038 85.8942 41.7726 85.6914C41.7414 85.4886 41.7506 85.2816 41.7997 85.0823C41.8488 84.8831 41.9368 84.6955 42.0586 84.5304C42.1804 84.3652 42.3337 84.2258 42.5096 84.1201C42.6855 84.0144 42.8805 83.9446 43.0835 83.9145C43.2865 83.8845 43.4934 83.8948 43.6924 83.945C44.7053 84.1947 45.702 84.5063 46.6768 84.878L46.0146 82.5949C45.9576 82.3986 45.9398 82.1929 45.9622 81.9897C45.9847 81.7864 46.0469 81.5896 46.1454 81.4104C46.244 81.2313 46.3768 81.0733 46.5364 80.9454C46.696 80.8176 46.8792 80.7224 47.0755 80.6654ZM38.4186 101.769L38.4476 101.86L41.9175 113.823C42.0278 114.211 41.9835 114.627 41.7938 114.982C41.6042 115.338 41.2839 115.606 40.9005 115.731C40.517 115.855 40.1002 115.826 39.7379 115.649C39.3755 115.473 39.0957 115.162 38.9574 114.784L38.9266 114.69L36.4968 106.313L34.8292 109.313C34.4292 110.032 33.5442 110.31 32.8105 109.967L32.7115 109.916C31.9926 109.516 31.7141 108.631 32.0573 107.898L32.1079 107.799L35.5918 101.537C36.2487 100.355 37.9796 100.522 38.4186 101.769ZM33.3942 93.9665C41.4732 91.6232 49.9233 96.2735 52.2671 104.354C54.6103 112.433 49.9598 120.882 41.8802 123.226C33.8011 125.569 25.3493 120.919 23.0062 112.841C20.6625 104.761 25.3139 96.3095 33.3935 93.9661L33.3942 93.9665ZM32.5267 90.9757C22.795 93.7984 17.1933 103.976 20.0162 113.709C22.8383 123.439 33.0165 129.039 42.7482 126.216C52.4788 123.394 58.08 113.217 55.2577 103.486C52.4351 93.7545 42.2577 88.1527 32.526 90.9753L32.5267 90.9757Z" fill="#00B373"/>
</g>
<g clip-path="url(#clip2_3461_116406)">
<path fill-rule="evenodd" clip-rule="evenodd" d="M120.782 83.8211C121.185 83.8205 121.571 83.9767 121.861 84.2565C122.15 84.5362 122.319 84.9176 122.332 85.3198C122.344 85.722 122.2 86.1134 121.929 86.411C121.658 86.7086 121.282 86.889 120.881 86.9141L120.782 86.9171H105.914C105.512 86.9174 105.125 86.7612 104.836 86.4813C104.547 86.2015 104.378 85.8201 104.365 85.418C104.353 85.0158 104.497 84.6245 104.768 84.327C105.039 84.0295 105.415 83.8491 105.816 83.8241L105.915 83.8211H120.783H120.782ZM111.864 52.9937C115.79 52.9937 118.42 53.9339 121.416 57.5285L122.57 58.9607L124.316 61.1687C125.955 63.2393 127.004 64.5065 127.983 65.5655C128.449 66.0701 129.164 66.5255 130.388 67.1123L130.93 67.3655C131.397 67.5785 132.442 68.0465 132.609 68.1221C133.288 68.4265 133.958 68.7515 134.617 69.0965C137 70.3553 138.83 71.7977 140.289 73.7867C140.734 74.3945 141.075 75.1055 141.333 75.8987C141.581 76.6595 141.741 77.4569 141.835 78.2513L141.867 78.5543C141.9 78.8903 141.914 79.1603 141.917 79.3445C141.92 79.745 141.767 80.1312 141.492 80.4218C141.216 80.7125 140.838 80.885 140.438 80.9032C140.038 80.9214 139.646 80.7838 139.346 80.5193C139.045 80.2548 138.858 79.884 138.825 79.4849L138.813 79.2065C138.801 79.0082 138.784 78.8103 138.76 78.6131C138.694 78.0174 138.57 77.4296 138.39 76.8581C138.226 76.3559 138.024 75.9341 137.792 75.6167C136.643 74.0507 135.171 72.8909 133.171 71.8343L132.802 71.6435C132.393 71.4373 131.981 71.2391 131.564 71.0489L129.493 70.1129C127.673 69.2717 126.577 68.6057 125.709 67.6673L125.466 67.4021C124.572 66.4169 123.619 65.2673 122.267 63.5681L119.385 59.9369L119.184 59.6885C116.834 56.8037 115.088 56.1185 112.063 56.0909L101.678 56.0897C98.6722 56.0897 97.369 56.5037 96.0652 57.9149L95.9152 58.0823C95.6782 58.3619 94.9732 59.2403 93.934 60.5465L92.1838 62.7527L89.125 66.6263L88.9978 66.7763L88.9012 66.8969C88.8638 66.9455 88.8272 66.9947 88.7914 67.0445C88.5598 67.3655 88.3234 67.7525 88.1014 68.2013C87.4942 69.4277 87.1144 70.8503 87.0718 72.4619L87.0676 72.7661V79.3661C87.068 79.7684 86.9117 80.1551 86.6319 80.4442C86.3521 80.7333 85.9707 80.9021 85.5685 80.9148C85.1664 80.9275 84.7751 80.7831 84.4776 80.5123C84.18 80.2415 83.9996 79.8654 83.9746 79.4639L83.9716 79.3661V72.7661C83.9716 70.5299 84.4786 68.5409 85.3276 66.8273C85.6009 66.2708 85.9196 65.7378 86.2804 65.2337C86.4052 65.0609 86.5168 64.9169 86.6116 64.8017L86.7478 64.6409L89.7562 60.8315L92.9434 56.8271C93.2956 56.3909 93.5326 56.1023 93.6448 55.9751C95.6182 53.7623 97.6948 53.0267 101.421 52.9949L101.678 52.9937H111.864ZM108.172 69.4973C108.574 69.4969 108.961 69.6531 109.25 69.933C109.539 70.2128 109.708 70.5942 109.721 70.9963C109.733 71.3985 109.589 71.7898 109.318 72.0873C109.047 72.3848 108.671 72.5652 108.27 72.5903L108.172 72.5933H99.0106C98.6083 72.5936 98.2216 72.4374 97.9325 72.1575C97.6434 71.8777 97.4746 71.4963 97.4619 71.0942C97.4492 70.692 97.5935 70.3007 97.8644 70.0032C98.1352 69.7057 98.5112 69.5253 98.9128 69.5003L99.0106 69.4973H108.173H108.172ZM130.677 78.9425C133.692 78.9425 136.221 81.0185 136.912 83.8205H140.368C140.772 83.8172 141.162 83.9722 141.453 84.2523C141.745 84.5324 141.915 84.9154 141.928 85.3195C141.941 85.7235 141.795 86.1166 141.522 86.4145C141.248 86.7125 140.869 86.8918 140.466 86.9141L140.368 86.9171H136.911C136.217 89.7137 133.689 91.7861 130.677 91.7861C127.131 91.7861 124.254 88.9127 124.254 85.3667C124.254 81.8159 127.129 78.9425 130.677 78.9425ZM96.0868 78.9425C99.6346 78.9425 102.509 81.8165 102.509 85.3667C102.509 88.9127 99.6334 91.7861 96.0868 91.7861C93.0748 91.7861 90.5464 89.7137 89.8528 86.9171H84.5026C84.1003 86.9174 83.7136 86.7612 83.4245 86.4813C83.1354 86.2015 82.9666 85.8201 82.9539 85.418C82.9412 85.0158 83.0855 84.6245 83.3564 84.327C83.6272 84.0295 84.0032 83.8491 84.4048 83.8241L84.5026 83.8211H89.8504C90.5422 81.0179 93.0718 78.9431 96.0868 78.9431V78.9425ZM96.0868 82.0385C95.6501 82.0385 95.2176 82.1245 94.8141 82.2916C94.4106 82.4588 94.0439 82.7037 93.7351 83.0126C93.4263 83.3214 93.1813 83.688 93.0142 84.0915C92.847 84.495 92.761 84.9275 92.761 85.3643C92.761 85.801 92.847 86.2335 93.0142 86.637C93.1813 87.0405 93.4263 87.4071 93.7351 87.716C94.0439 88.0248 94.4106 88.2698 94.8141 88.4369C95.2176 88.604 95.6501 88.6901 96.0868 88.6901C96.5235 88.6904 96.9559 88.6046 97.3594 88.4378C97.763 88.2709 98.1297 88.0262 98.4386 87.7175C98.7475 87.4089 98.9926 87.0424 99.1598 86.6391C99.327 86.2357 99.4131 85.8033 99.4132 85.3667C99.4137 84.9296 99.328 84.4968 99.161 84.0929C98.994 83.689 98.7491 83.322 98.4401 83.0128C98.1311 82.7037 97.7643 82.4585 97.3605 82.2914C96.9567 82.1242 96.5239 82.0382 96.0868 82.0385ZM130.677 82.0385C130.24 82.0385 129.808 82.1245 129.404 82.2916C129.001 82.4588 128.634 82.7037 128.325 83.0126C128.016 83.3214 127.771 83.688 127.604 84.0915C127.437 84.495 127.351 84.9275 127.351 85.3643C127.351 85.801 127.437 86.2335 127.604 86.637C127.771 87.0405 128.016 87.4071 128.325 87.716C128.634 88.0248 129.001 88.2698 129.404 88.4369C129.808 88.604 130.24 88.6901 130.677 88.6901C131.113 88.6904 131.546 88.6046 131.949 88.4378C132.353 88.2709 132.72 88.0262 133.029 87.7175C133.337 87.4089 133.583 87.0424 133.75 86.6391C133.917 86.2357 134.003 85.8033 134.003 85.3667C134.004 84.9296 133.918 84.4968 133.751 84.0929C133.584 83.689 133.339 83.322 133.03 83.0128C132.721 82.7037 132.354 82.4585 131.95 82.2914C131.547 82.1242 131.114 82.0382 130.677 82.0385ZM113.45 59.7365C113.843 59.7364 114.222 59.8865 114.509 60.156C114.796 60.4255 114.97 60.7943 114.995 61.1873L114.998 61.2851V69.4973H123.807C124.201 69.4972 124.579 69.6473 124.867 69.9168C125.154 70.1863 125.327 70.5551 125.352 70.9481L125.355 71.0459C125.355 71.4395 125.205 71.8184 124.935 72.1054C124.666 72.3924 124.297 72.566 123.905 72.5909L123.807 72.5939H113.45C113.056 72.5939 112.677 72.4439 112.39 72.1745C112.103 71.9051 111.929 71.5365 111.905 71.1437L111.902 71.0459V61.2851C111.902 60.8745 112.065 60.4808 112.355 60.1905C112.645 59.9001 113.039 59.7371 113.45 59.7371V59.7365ZM108.172 59.7365C108.576 59.7332 108.966 59.8882 109.257 60.1683C109.549 60.4484 109.719 60.8314 109.732 61.2355C109.745 61.6395 109.599 62.0326 109.326 62.3305C109.052 62.6285 108.673 62.8078 108.27 62.8301L108.172 62.8331L100.116 62.8325L93.8014 71.4065C93.5687 71.7222 93.2248 71.9378 92.8392 72.0098C92.4536 72.0817 92.0551 72.0046 91.7242 71.7941L91.6372 71.7341C91.3214 71.5015 91.1057 71.1578 91.0335 70.7724C90.9613 70.3869 91.0381 69.9885 91.2484 69.6575L91.3084 69.5699L98.0878 60.3671C98.2204 60.1871 98.3903 60.038 98.5859 59.93C98.7816 59.8219 98.9983 59.7576 99.2212 59.7413L99.334 59.7371H108.172V59.7365Z" fill="#00B373"/>
</g>
<g clip-path="url(#clip3_3461_116406)">
<path fill-rule="evenodd" clip-rule="evenodd" d="M55.9828 40.6221L56.1519 40.6536C56.7031 40.7621 57.2515 40.8846 57.7964 41.0211C59.1598 41.3575 60.5 41.782 61.8085 42.2918C64.7951 43.4703 67.0428 44.9521 68.2237 46.8986C68.9935 48.1637 69.5662 49.586 70.0126 51.2264L70.1396 51.7065C70.3678 52.6029 70.54 53.4693 70.7644 54.7805L71.1102 56.8563C71.1447 57.0578 71.1393 57.2642 71.0941 57.4636C71.0489 57.6631 70.9648 57.8516 70.8468 58.0186C70.7287 58.1855 70.5789 58.3276 70.4059 58.4366C70.233 58.5457 70.0402 58.6196 69.8387 58.6542C69.6372 58.6888 69.4308 58.6833 69.2314 58.6381C69.0319 58.5929 68.8434 58.5089 68.6764 58.3908C68.5095 58.2727 68.3674 58.1229 68.2584 57.95C68.1493 57.777 68.0754 57.5843 68.0408 57.3827L67.6995 55.3347C67.4502 53.8732 67.2731 53.0162 67.0081 52.0454C66.633 50.667 66.1669 49.5089 65.5625 48.5156C64.8179 47.2881 63.0753 46.1395 60.6661 45.1889C59.4836 44.7288 58.2726 44.3456 57.0406 44.0419L56.7879 43.9799L56.7382 44.1194C53.4655 53.1693 43.7951 54.8052 37.6201 47.5757L37.5397 47.4787L37.3235 47.6278C36.2775 48.3458 35.2791 49.1307 34.3344 49.9776C32.414 51.7148 31.1874 53.4039 30.9221 54.8158C30.5006 57.0488 30.9491 61.3026 31.9141 66.9486L32.0191 67.5595L70.5983 60.5444C70.9879 60.4735 71.3899 60.5538 71.7225 60.7688C72.055 60.9839 72.2931 61.3176 72.3883 61.702L72.4088 61.7983C72.4797 62.1878 72.3995 62.5897 72.1846 62.9222C71.9696 63.2547 71.6361 63.4929 71.2518 63.5882L71.1555 63.6087L31.0397 70.9033C30.6335 70.9771 30.2145 70.8866 29.8749 70.6515C29.5354 70.4165 29.3032 70.0562 29.2293 69.6499L29.0159 68.463C27.8461 61.8485 27.3158 57.1345 27.862 54.2391C28.283 52.0001 29.8648 49.8226 32.2455 47.6687C33.2906 46.7304 34.3955 45.861 35.5531 45.0657C35.8728 44.8448 36.1751 44.6429 36.4569 44.4617L36.8988 44.1825C36.9893 44.1265 37.0602 44.0837 37.1102 44.0539C37.4478 43.8549 37.848 43.7905 38.2309 43.8736C38.6138 43.9567 38.9514 44.1811 39.1761 44.5021C44.0593 51.4756 52.0613 50.1321 54.2063 41.7691C54.3038 41.3895 54.5409 41.0606 54.8702 40.8481C55.1995 40.6356 55.5968 40.5551 55.9829 40.6227L55.9828 40.6221ZM20.6906 44.0086C21.0802 43.9378 21.4821 44.018 21.8146 44.2329C22.1471 44.4479 22.3852 44.7814 22.4805 45.1657L22.5011 45.262L22.8549 47.2113L24.8043 46.8575C25.2024 46.7846 25.6132 46.8696 25.9497 47.0945C26.2862 47.3194 26.5219 47.6665 26.6069 48.0622C26.6919 48.4579 26.6194 48.8711 26.4049 49.2143C26.1903 49.5575 25.8506 49.8037 25.4576 49.9007L25.3614 49.9212L23.4121 50.2757L23.7668 52.2261C23.8371 52.6231 23.7507 53.0319 23.5257 53.3664C23.3007 53.701 22.9547 53.9352 22.5605 54.0199C22.1663 54.1045 21.7546 54.0329 21.4122 53.8202C21.0697 53.6075 20.823 53.2702 20.7242 52.8794L20.7036 52.7831L20.3483 50.8322L18.3944 51.1881C17.9963 51.2609 17.5854 51.1759 17.2489 50.951C16.9124 50.7262 16.6767 50.3791 16.5918 49.9834C16.5068 49.5876 16.5793 49.1744 16.7938 48.8312C17.0084 48.488 17.3481 48.2418 17.741 48.1449L17.8373 48.1243L19.7913 47.769L19.4367 45.8192C19.4001 45.618 19.4035 45.4115 19.4468 45.2116C19.49 45.0117 19.5722 44.8223 19.6886 44.6541C19.805 44.486 19.9535 44.3425 20.1254 44.2317C20.2973 44.121 20.4894 44.0452 20.6906 44.0086ZM42.8193 21.2C54.5938 19.0589 59.6884 34.4659 50.4772 41.4812C50.3145 41.605 50.129 41.6957 49.9313 41.7479C49.7335 41.8 49.5274 41.8128 49.3248 41.7853C49.1221 41.7579 48.9269 41.6908 48.7502 41.5879C48.5734 41.4849 48.4187 41.3482 48.2948 41.1855C48.1709 41.0228 48.0803 40.8373 48.0281 40.6396C47.9759 40.4418 47.9632 40.2357 47.9906 40.0331C48.0181 39.8304 48.0852 39.6352 48.1881 39.4585C48.291 39.2817 48.4277 39.127 48.5905 39.0031C51.6883 36.6445 52.7959 32.6175 51.6198 29.0608C50.4442 25.5069 47.39 23.5339 43.3764 24.2637C40.5783 24.7725 38.8105 26.232 37.9523 28.3779C37.2174 30.2154 37.2277 32.4754 37.873 34.2029C39.421 38.3464 42.8259 40.9496 48.1612 42.8738C48.3535 42.9432 48.5303 43.0498 48.6814 43.1875C48.8326 43.3253 48.9551 43.4914 49.042 43.6765C49.1289 43.8616 49.1785 44.062 49.188 44.2663C49.1975 44.4705 49.1666 44.6746 49.0972 44.867C49.0278 45.0593 48.9211 45.2361 48.7834 45.3872C48.6457 45.5383 48.4795 45.6609 48.2944 45.7478C48.1093 45.8347 47.909 45.8843 47.7047 45.8938C47.5004 45.9032 47.2963 45.8724 47.104 45.803C40.9939 43.5989 36.8858 40.4588 34.956 35.2925C34.0463 32.8551 34.031 29.7959 35.0612 27.2217C36.3145 24.0861 38.9605 21.9023 42.8194 21.2006L42.8193 21.2ZM62.0616 29.058C62.4511 28.9872 62.853 29.0674 63.1855 29.2823C63.518 29.4973 63.7561 29.8308 63.8515 30.2151L63.8714 30.3115L64.2259 32.2607L66.1746 31.907C66.5728 31.8339 66.9837 31.9188 67.3203 32.1436C67.6569 32.3685 67.8928 32.7155 67.9778 33.1113C68.0628 33.507 67.9904 33.9204 67.7759 34.2636C67.5614 34.6069 67.2216 34.8531 66.8286 34.9501L66.7317 34.9707L64.7831 35.3251L65.1377 37.2755C65.2106 37.6736 65.1256 38.0845 64.9007 38.421C64.6758 38.7575 64.3287 38.9932 63.933 39.0781C63.5373 39.1631 63.1241 39.0906 62.7809 38.8761C62.4377 38.6616 62.1915 38.3218 62.0945 37.9289L62.074 37.8326L61.7192 35.8816L59.7654 36.2375C59.3672 36.3105 58.9563 36.2256 58.6197 36.0008C58.2831 35.776 58.0472 35.4289 57.9622 35.0332C57.8771 34.6374 57.9495 34.2241 58.1641 33.8808C58.3786 33.5376 58.7184 33.2914 59.1114 33.1944L59.2077 33.1738L61.1616 32.8185L60.8077 30.8686C60.7338 30.4623 60.8243 30.0433 61.0594 29.7038C61.2944 29.3643 61.6547 29.132 62.061 29.0582L62.0616 29.058ZM65.9599 20.0779C66.1189 20.2066 66.251 20.3652 66.3487 20.5449C66.4463 20.7246 66.5076 20.9217 66.5291 21.1251C66.5505 21.3284 66.5317 21.534 66.4737 21.7301C66.4157 21.9262 66.3197 22.109 66.191 22.2679C64.2922 24.6135 61.8332 25.7394 59.2581 25.996C58.8493 26.033 58.4425 25.907 58.1261 25.6456C57.8097 25.3841 57.6093 25.0083 57.5685 24.5999C57.5278 24.1915 57.65 23.7835 57.9085 23.4646C58.167 23.1458 58.541 22.942 58.949 22.8975C60.7555 22.7172 62.4478 21.9424 63.7704 20.3084C63.8991 20.1494 64.0578 20.0174 64.2375 19.9197C64.4172 19.8221 64.6143 19.7609 64.8177 19.7394C65.0211 19.718 65.2267 19.7369 65.4228 19.795C65.6188 19.853 65.8016 19.9491 65.9605 20.0778L65.9599 20.0779ZM25.464 20.0973C25.8535 20.0264 26.2553 20.1066 26.5877 20.3214C26.9202 20.5362 27.1584 20.8696 27.2538 21.2538L27.2739 21.3507L27.6283 23.3L29.577 22.9456C29.9765 22.8694 30.39 22.9524 30.729 23.1771C31.0681 23.4018 31.3058 23.7502 31.3912 24.1479C31.4767 24.5455 31.4031 24.9608 31.1863 25.305C30.9695 25.6491 30.6266 25.8947 30.231 25.9893L30.1342 26.01L28.1855 26.3643L28.5402 28.3147C28.6131 28.7129 28.528 29.1237 28.3032 29.4602C28.0783 29.7967 27.7312 30.0324 27.3355 30.1174C26.9398 30.2023 26.5265 30.1299 26.1833 29.9153C25.8401 29.7008 25.594 29.3611 25.497 28.9681L25.4764 28.8718L25.1216 26.9202L23.1676 27.2755C22.7706 27.346 22.3617 27.2597 22.027 27.0348C21.6924 26.8098 21.458 26.4639 21.3733 26.0696C21.2886 25.6754 21.3601 25.2637 21.5728 24.9212C21.7855 24.5786 22.1228 24.3319 22.5137 24.233L22.61 24.2125L24.564 23.8572L24.21 21.9072C24.1361 21.501 24.2267 21.082 24.4617 20.7425C24.6968 20.4029 25.0571 20.1707 25.4633 20.0968L25.464 20.0973ZM50.1221 8.47234L50.1639 8.56781L54.5069 19.6541C54.6559 20.031 54.6521 20.4511 54.4962 20.8252C54.3404 21.1993 54.0449 21.4979 53.6724 21.6576C53.2999 21.8172 52.8799 21.8254 52.5015 21.6803C52.1231 21.5352 51.8162 21.2483 51.646 20.8805L51.6069 20.79L48.1719 12.0207L40.8264 19.9896C40.5591 20.2798 40.1916 20.4577 39.7982 20.4873C39.4048 20.517 39.0148 20.3962 38.707 20.1493L38.626 20.0793C38.3358 19.8119 38.158 19.4444 38.1285 19.0509C38.0989 18.6575 38.2198 18.2675 38.4668 17.9598L38.5369 17.8793L47.5688 8.08041C48.3246 7.25996 49.6597 7.4819 50.1222 8.47293L50.1221 8.47234ZM25.5719 39.4279C26.9648 40.5955 28.7002 41.2648 30.7926 41.0704C31.2006 41.0377 31.6051 41.1671 31.9185 41.4305C32.2319 41.6939 32.429 42.0701 32.467 42.4777C32.505 42.8854 32.381 43.2915 32.1218 43.6084C31.8625 43.9252 31.4889 44.1272 31.0819 44.1706C28.0775 44.4504 25.5557 43.4777 23.5713 41.8139C23.2607 41.5468 23.0679 41.1682 23.0346 40.7599C23.0013 40.3517 23.1302 39.9468 23.3933 39.633C23.6565 39.3191 24.0327 39.1216 24.4405 39.0832C24.8483 39.0448 25.2548 39.1686 25.5719 39.4279ZM30.9004 12.0834C33.0816 13.4773 34.7663 15.592 35.4005 18.543C35.446 18.7438 35.4513 18.9516 35.4159 19.1545C35.3806 19.3573 35.3054 19.5512 35.1947 19.7247C35.0839 19.8983 34.9399 20.0482 34.7708 20.1658C34.6017 20.2833 34.411 20.3661 34.2097 20.4095C34.0084 20.4528 33.8005 20.4558 33.5981 20.4182C33.3956 20.3807 33.2026 20.3034 33.0303 20.1907C32.8579 20.0781 32.7096 19.9324 32.5939 19.762C32.4783 19.5917 32.3975 19.4001 32.3564 19.1983C31.9136 17.142 30.7549 15.6866 29.2238 14.7081C29.0483 14.5995 28.8963 14.4571 28.7764 14.2892C28.6565 14.1214 28.5711 13.9313 28.5253 13.7302C28.4795 13.529 28.4741 13.3207 28.5094 13.1175C28.5448 12.9142 28.6202 12.72 28.7313 12.5461C28.8423 12.3723 28.9868 12.2222 29.1564 12.1047C29.3259 11.9872 29.5172 11.9045 29.719 11.8615C29.9207 11.8185 30.1291 11.8161 30.3318 11.8543C30.5345 11.8925 30.7277 11.9706 30.8999 12.0841L30.9004 12.0834Z" fill="#00B373"/>
</g>
</g>
<defs>
<clipPath id="clip0_3461_116406">
<rect width="145" height="160" fill="white" transform="translate(0.5)"/>
</clipPath>
<clipPath id="clip1_3461_116406">
<rect width="60" height="60" fill="white" transform="translate(0.704102 89.3296) rotate(-16.1747)"/>
</clipPath>
<clipPath id="clip2_3461_116406">
<rect width="60" height="60" fill="white" transform="translate(82.3604 42.353)"/>
</clipPath>
<clipPath id="clip3_3461_116406">
<rect width="60" height="60" fill="white" transform="translate(8.9873 14.3458) rotate(-10.3059)"/>
</clipPath>
</defs>
</svg>
