<svg width="145" height="160" viewBox="0 0 145 160" fill="none" xmlns="http://www.w3.org/2000/svg">
<g clip-path="url(#clip0_3461_116415)">
<circle cx="72.9863" cy="77" r="50" fill="white"/>
<g clip-path="url(#clip1_3461_116415)">
<path fill-rule="evenodd" clip-rule="evenodd" d="M125.841 105.806C126.218 105.667 126.634 105.68 127.002 105.841C127.37 106.002 127.66 106.3 127.813 106.671C127.966 107.043 127.968 107.459 127.821 107.832C127.673 108.206 127.386 108.507 127.02 108.673L126.93 108.71L81.5306 125.724L81.5696 125.779C84.8868 130.483 89.1645 134.137 93.8629 136.326L94.2883 136.519L122.582 125.915L122.67 125.727C124.416 121.896 125.323 117.491 125.297 112.875L125.292 112.427C125.284 112.221 125.317 112.016 125.39 111.822C125.462 111.629 125.572 111.453 125.714 111.303C125.856 111.153 126.026 111.032 126.215 110.949C126.403 110.866 126.607 110.821 126.813 110.817C127.019 110.813 127.224 110.851 127.416 110.927C127.607 111.003 127.782 111.117 127.929 111.262C128.076 111.406 128.193 111.579 128.272 111.769C128.352 111.959 128.393 112.164 128.393 112.37C128.496 117.933 127.36 123.261 125.103 127.834C124.946 128.151 124.686 128.405 124.365 128.554L124.256 128.6L94.7924 139.642C94.4233 139.781 94.015 139.774 93.6517 139.621C87.42 137.023 81.8377 132.152 77.8471 125.779C77.7296 125.592 77.6537 125.381 77.6244 125.162C77.5951 124.942 77.6132 124.719 77.6773 124.507C77.7415 124.295 77.8503 124.099 77.9963 123.933C78.1424 123.767 78.3225 123.634 78.5243 123.542L78.6171 123.505L125.841 105.806ZM120.156 84.5931C120.496 84.5467 120.841 84.6142 121.139 84.785C121.436 84.9558 121.668 85.2202 121.799 85.537C123.213 88.9574 123.557 91.9564 122.966 94.5169C123.393 94.692 123.805 94.9008 124.202 95.141C124.93 95.5818 125.601 96.1131 126.196 96.7222C126.545 97.0779 126.792 97.3786 126.937 97.5817C127.099 97.808 127.197 98.0735 127.221 98.3505C127.245 98.6275 127.194 98.9059 127.073 99.1564C126.49 100.367 125.803 101.444 125.017 102.392C121.977 106.061 117.838 107.521 113.467 107.512C112.311 107.51 111.408 107.406 110.86 107.294C110.469 107.212 110.125 106.981 109.899 106.651C109.674 106.32 109.585 105.915 109.651 105.521C109.717 105.126 109.932 104.773 110.253 104.533C110.574 104.294 110.974 104.188 111.371 104.237L111.597 104.276C111.669 104.288 111.765 104.301 111.882 104.316L111.974 104.327C112.42 104.378 112.924 104.41 113.473 104.411C117.001 104.418 120.264 103.267 122.63 100.413C123.058 99.8933 123.443 99.3393 123.779 98.7562L123.801 98.7159L123.625 98.5549C123.378 98.3337 123.109 98.1251 122.82 97.9358L122.601 97.7971C122.342 97.6414 122.077 97.5063 121.805 97.3923L121.731 97.5135C120.348 99.7452 118.258 101.236 115.935 102.164C115.745 102.244 115.541 102.285 115.335 102.285C115.129 102.285 114.925 102.244 114.735 102.165C114.545 102.085 114.373 101.968 114.228 101.821C114.084 101.675 113.97 101.5 113.894 101.309C113.817 101.118 113.78 100.913 113.783 100.707C113.787 100.501 113.832 100.298 113.914 100.109C113.997 99.9207 114.117 99.7506 114.267 99.6088C114.416 99.467 114.592 99.3564 114.785 99.2834C116.547 98.5797 118.115 97.4617 119.095 95.8801C119.261 95.6116 119.409 95.3326 119.537 95.0417C119.56 94.9737 119.587 94.9083 119.619 94.8458C120.355 93.031 120.351 90.7801 119.408 87.9842L119.367 87.8658L119.273 87.8844C114.206 88.9024 111.947 91.5098 111.53 95.2319L111.511 95.4158C111.401 96.5653 111.48 97.7416 111.692 98.8707C111.766 99.266 111.85 99.6257 111.939 99.9399L112.024 100.228C112.03 100.247 112.037 100.267 112.043 100.286C112.171 100.671 112.142 101.091 111.963 101.456C111.784 101.82 111.47 102.1 111.087 102.235C110.704 102.37 110.283 102.35 109.915 102.178C109.547 102.007 109.261 101.698 109.119 101.318L109.053 101.121C108.926 100.726 108.777 100.154 108.643 99.4416C108.382 98.0464 108.285 96.5869 108.423 95.1221C108.95 89.5811 112.631 85.6193 120.157 84.5934L120.156 84.5931ZM79.3143 97.1068C84.1501 97.0337 89.9866 100.731 93.0627 106.301C93.2527 106.661 93.2941 107.08 93.1779 107.47C93.0618 107.859 92.7974 108.187 92.4416 108.384C92.0858 108.58 91.6671 108.63 91.2756 108.52C90.884 108.411 90.5509 108.153 90.3479 107.801C87.8044 103.195 83.0019 100.153 79.3608 100.208C77.2005 100.24 76.5076 102.364 77.7005 104.2C78.4916 105.417 77.3259 106.957 75.9398 106.526C73.8002 105.86 72.1762 106.891 71.8933 108.613C71.5952 110.436 72.9843 112.026 76.1494 112.331C77.544 112.466 78.0442 114.22 76.9806 115.076L76.8958 115.141C76.0348 115.75 75.8091 116.784 76.2276 117.673C76.6113 118.487 77.3116 118.769 78.2603 118.317C78.7995 118.06 79.2174 117.766 79.9052 117.17L80.6015 116.552C82.8051 114.586 84.4688 113.826 87.366 114.09C87.5724 114.104 87.7739 114.159 87.9586 114.252C88.1434 114.345 88.3078 114.474 88.442 114.631C88.5762 114.789 88.6776 114.971 88.7403 115.168C88.8029 115.365 88.8255 115.573 88.8067 115.779C88.7879 115.985 88.7281 116.185 88.6308 116.367C88.5335 116.55 88.4007 116.711 88.2402 116.842C88.0797 116.972 87.8948 117.069 87.6962 117.127C87.4977 117.185 87.2896 117.202 87.0841 117.179C85.254 117.012 84.3509 117.391 82.826 118.725L82.4239 119.083C81.2393 120.145 80.5893 120.642 79.5955 121.116C77.044 122.333 74.515 121.316 73.4218 118.995C72.8128 117.702 72.7629 116.247 73.2572 114.96L73.2941 114.867L73.1944 114.832C70.0764 113.689 68.4141 111.159 68.8074 108.281L68.8334 108.111C69.2645 105.483 71.2748 103.589 73.8866 103.27L74.0918 103.248L74.0827 103.181C73.6685 100.143 75.5215 97.1626 79.3143 97.1068ZM78.0809 108.287L78.1742 108.257C84.2099 106.514 90.114 108.435 93.9618 113.095C94.0969 113.251 94.1994 113.433 94.2633 113.63C94.3272 113.826 94.3512 114.033 94.3339 114.239C94.3166 114.445 94.2583 114.646 94.1625 114.829C94.0666 115.012 93.9352 115.174 93.7759 115.305C93.6165 115.437 93.4325 115.535 93.2346 115.595C93.0367 115.654 92.8289 115.674 92.6235 115.652C92.418 115.63 92.219 115.567 92.0382 115.467C91.8573 115.367 91.6983 115.232 91.5703 115.07C88.4987 111.349 83.8652 109.842 79.0344 111.236C78.6481 111.345 78.2346 111.301 77.8807 111.111C77.5268 110.922 77.2601 110.603 77.1366 110.221C77.0131 109.839 77.0426 109.424 77.2187 109.063C77.3948 108.703 77.7039 108.424 78.0809 108.287ZM84.4695 85.5524C87.6464 84.9201 91.7712 86.1264 94.6873 88.3649C96.1256 85.7551 98.3001 83.366 101.154 81.4276C101.324 81.3122 101.515 81.2316 101.717 81.1907C101.918 81.1497 102.125 81.1491 102.327 81.1889C102.528 81.2288 102.72 81.3082 102.89 81.4227C103.061 81.5372 103.207 81.6844 103.32 81.8558L103.373 81.9407L108.05 90.1238C108.245 90.4731 108.297 90.8842 108.196 91.2712C108.095 91.6582 107.848 91.9912 107.508 92.2006C107.167 92.41 106.758 92.4796 106.367 92.395C105.977 92.3103 105.633 92.0779 105.41 91.7463L105.358 91.6631L101.547 84.9969L101.284 85.2144C96.7618 89.0312 95.1465 94.1011 95.9408 98.4232C95.957 98.4838 95.969 98.5465 95.9772 98.6095C96.9012 103.216 100.583 106.929 106.41 107.287L106.775 107.304C107.18 107.328 107.56 107.509 107.833 107.809C108.106 108.11 108.25 108.505 108.235 108.91C108.22 109.315 108.047 109.699 107.753 109.978C107.458 110.257 107.066 110.41 106.661 110.404C99.8181 110.152 94.6752 105.965 93.1111 99.9583C92.1531 99.5441 91.2646 98.985 90.4767 98.3005C88.8567 96.8927 87.6941 95.0332 87.1378 92.9604L87.0888 92.7698C87.0678 92.6848 87.0525 92.6149 87.0428 92.5615C86.9711 92.1677 87.0545 91.7614 87.2754 91.4277C87.4964 91.0939 87.8378 90.8585 88.2284 90.7706C88.6189 90.6828 89.0283 90.7494 89.3709 90.9564C89.7135 91.1634 89.9628 91.4949 90.0666 91.8815L90.1059 92.0513C90.1141 92.0845 90.1227 92.1176 90.1316 92.1506C90.4794 93.4363 91.2339 94.8496 92.5102 95.9591L92.6252 96.0557C92.6388 94.4493 92.8996 92.8545 93.3985 91.3275C91.4347 89.5357 88.3385 88.3777 85.9325 88.4924L85.878 88.4955L85.8137 88.7003C85.7117 89.0435 85.6297 89.4042 85.5668 89.7802L85.5232 90.0657C85.3933 90.9947 85.3801 91.9582 85.4524 92.8897C85.475 93.1856 85.5075 93.4807 85.5501 93.7744L85.5864 94.003C85.5898 94.0231 85.5934 94.0431 85.5973 94.063C85.6427 94.2647 85.6472 94.4734 85.6108 94.6769C85.5743 94.8804 85.4975 95.0745 85.3849 95.2479C85.2723 95.4213 85.1262 95.5704 84.9552 95.6865C84.7842 95.8026 84.5916 95.8834 84.3889 95.924C84.1862 95.9646 83.9775 95.9643 83.7749 95.9231C83.5723 95.8819 83.38 95.8006 83.2093 95.684C83.0386 95.5674 82.8929 95.4179 82.7808 95.2442C82.6688 95.0705 82.5925 94.8761 82.5566 94.6725L82.5202 94.476C82.4638 94.1511 82.4042 93.6929 82.3603 93.1295C82.2724 91.9886 82.288 90.8076 82.4515 89.6366C82.6116 88.4873 82.9077 87.4069 83.3644 86.4215C83.4671 86.1999 83.6207 86.0057 83.8126 85.8548C84.0046 85.7038 84.2294 85.6003 84.469 85.5526L84.4695 85.5524Z" fill="#00B373"/>
</g>
<g clip-path="url(#clip2_3461_116415)">
<path fill-rule="evenodd" clip-rule="evenodd" d="M118.622 25.6706C120.467 28.869 119.359 33.0053 116.162 34.8513L82.1425 54.4933C79.0001 56.3081 74.9522 55.2688 73.0611 52.1979L72.9251 51.9683C71.0888 48.7884 72.1969 44.6527 75.3951 42.8057L109.415 23.1633C112.557 21.3491 116.606 22.388 118.496 25.4593L118.622 25.6706ZM107.864 20.4774L73.8439 40.1197C69.1626 42.8234 67.5463 48.8555 70.2489 53.5364L70.2884 53.6023C72.9794 58.2659 79.0122 59.8818 83.6932 57.1792L117.712 37.5372C122.393 34.8346 124.01 28.8014 121.307 24.1204L121.28 24.0721C118.577 19.3911 112.545 17.7749 107.864 20.4774ZM122.219 36.2022C122.575 35.9968 122.998 35.9412 123.396 36.0478C123.793 36.1543 124.131 36.4142 124.337 36.7704C126.923 41.2556 124.986 45.9586 120.182 48.824L119.989 48.9381L92.4302 64.8511C87.4844 67.7076 82.3437 67.0743 79.7171 62.5273C79.6103 62.3508 79.5398 62.1548 79.5097 61.9507C79.4797 61.7465 79.4906 61.5385 79.5419 61.3387C79.5933 61.1388 79.684 60.9513 79.8087 60.7869C79.9334 60.6226 80.0897 60.4848 80.2683 60.3816C80.4469 60.2784 80.6444 60.2118 80.849 60.1859C81.0537 60.1599 81.2615 60.1751 81.4603 60.2304C81.659 60.2858 81.8447 60.3802 82.0065 60.5082C82.1683 60.6362 82.3029 60.7952 82.4025 60.9759C84.0339 63.7989 87.1681 64.2307 90.6935 62.2707L90.8795 62.1653L118.439 46.2516C122.039 44.1739 123.305 41.1899 121.65 38.3202C121.445 37.9639 121.389 37.5406 121.496 37.1434C121.603 36.7463 121.863 36.4077 122.219 36.2022ZM110.57 26.7636C110.98 26.7286 111.387 26.8577 111.701 27.1227C112.016 27.3877 112.212 27.7667 112.247 28.1765L112.317 28.9604C112.324 29.0543 112.331 29.1438 112.337 29.2329C112.389 29.9487 112.401 30.5638 112.361 31.1593C112.242 32.8916 111.685 34.2356 110.386 34.9839C109.121 35.7145 108.097 35.4608 105.974 34.4122L104.785 33.8168C104.381 33.619 104.137 33.5119 103.901 33.4281L103.756 33.3794L103.671 33.3549L103.663 33.3899L103.643 33.4909C103.602 33.7382 103.565 34.1763 103.568 34.8609L103.582 35.9709C103.586 36.6398 103.566 36.9917 103.5 37.4355C103.349 38.4441 102.959 39.2408 102.146 39.7393C101.251 40.2884 100.272 40.3074 99.2675 39.9482C98.8107 39.7848 98.4676 39.614 97.8894 39.2659L97.0182 38.7268C95.9647 38.0756 95.5481 37.954 95.3437 38.0725C95.1469 38.1857 95.0435 38.5785 95.0672 39.7004L95.0982 40.7157C95.1172 41.4935 95.0973 41.8969 95.0035 42.4115C94.8118 43.4609 94.3063 44.2994 93.3849 44.7986C92.548 45.2538 91.6621 45.1941 90.7124 44.8204L90.5388 44.7497C90.1709 44.5952 89.8484 44.4218 89.2748 44.0842L88.5759 43.6671L88.3051 43.5095C87.7472 43.1923 87.3789 43.0252 87.1692 42.9523L87.0896 42.9272L87.0695 43.0113L87.0517 43.0941C86.9815 43.4486 86.9488 43.8119 86.8995 44.6913L86.8813 45.0306C86.7332 47.693 86.4834 48.7827 85.1448 49.557C83.8474 50.3051 82.4066 50.1159 80.8475 49.3534C80.3625 49.1122 79.8934 48.8405 79.443 48.5398L79.0802 48.2966L78.3202 47.7668C77.9931 47.5358 77.768 47.1871 77.6922 46.7938C77.6163 46.4006 77.6955 45.9932 77.9132 45.657C78.1309 45.3209 78.4703 45.0819 78.8601 44.9903C79.25 44.8986 79.6602 44.9613 80.0049 45.1652L80.1238 45.2431L80.7253 45.6645L80.929 45.8036C81.4134 46.1309 81.8246 46.379 82.2102 46.5674C82.8006 46.856 83.2163 46.9506 83.4561 46.9155L83.5055 46.9051L83.5185 46.8751C83.5428 46.8108 83.5635 46.7452 83.5805 46.6786L83.6003 46.5951L83.6336 46.4363C83.6962 46.1052 83.7358 45.691 83.7744 45.0298L83.8329 44.0119C83.8775 43.317 83.9206 42.9403 84.01 42.4909C84.2136 41.4621 84.6041 40.6909 85.4102 40.2255C86.8628 39.3873 88.0943 39.7757 90.1579 40.9995L90.9223 41.4546C91.309 41.6806 91.5323 41.8001 91.7377 41.8887L91.8811 41.947L91.9491 41.9714L91.9619 41.8959C91.9914 41.6933 92.0098 41.3 91.9916 40.5796L91.9706 39.9416C91.9023 37.6188 92.2285 36.2899 93.7924 35.3865C95.3106 34.51 96.592 34.844 98.4758 35.983L99.1873 36.4227C99.8489 36.828 100.203 37.0074 100.38 37.0715L100.414 37.0831L100.433 36.9763L100.449 36.8576C100.472 36.6558 100.481 36.4277 100.48 36.0524L100.468 35.0497C100.44 32.6475 100.718 31.3878 102.171 30.5502C102.976 30.0846 103.84 30.1322 104.833 30.4685L105.015 30.5327C105.343 30.6518 105.649 30.7872 106.11 31.0125L107.294 31.6048C107.898 31.9048 108.267 32.0651 108.594 32.1656C108.68 32.1918 108.756 32.2109 108.819 32.224L108.91 32.2385L108.945 32.2001C109.084 32.0243 109.202 31.6646 109.255 31.0948L109.266 30.9481C109.295 30.5193 109.286 30.0385 109.244 29.4551L109.214 29.0775L109.158 28.4412C109.122 28.0315 109.252 27.6246 109.516 27.31C109.781 26.9954 110.16 26.7989 110.57 26.7636ZM99.1267 12.8059C104.073 9.94961 109.213 10.582 111.841 15.1268C112.041 15.4825 112.093 15.9029 111.985 16.2967C111.878 16.6906 111.619 17.026 111.266 17.2304C110.912 17.4348 110.492 17.4916 110.097 17.3884C109.702 17.2853 109.364 17.0306 109.155 16.6795C107.523 13.8569 104.39 13.4261 100.864 15.3859L100.678 15.4913L73.1197 31.4027C69.5178 33.4813 68.2512 36.4651 69.9075 39.3339C70.1035 39.6895 70.1522 40.1076 70.0433 40.4987C69.9344 40.8897 69.6765 41.2225 69.325 41.4256C68.9735 41.6287 68.5564 41.6858 68.1633 41.5848C67.7701 41.4838 67.4322 41.2327 67.2221 40.8854C64.6332 36.4013 66.5706 31.6977 71.3752 28.8307L71.569 28.7168L99.1267 12.8059Z" fill="#00B373"/>
</g>
<g clip-path="url(#clip3_3461_116415)">
<path fill-rule="evenodd" clip-rule="evenodd" d="M71.1998 68.5212C71.5438 68.721 71.7969 69.0464 71.9058 69.429C72.0146 69.8116 71.9707 70.2216 71.7833 70.5725C71.5959 70.9234 71.2796 71.1878 70.9011 71.3101C70.5225 71.4325 70.1113 71.4031 69.754 71.2282L69.6647 71.1801L46.8525 58.0095C46.2938 58.7289 45.6273 59.3972 44.6994 60.2305L43.5883 61.2213C43.3096 61.4761 43.1715 61.6132 42.967 61.8283C42.6084 62.2047 42.3383 62.5524 42.1331 62.9078C41.9297 63.2601 41.767 63.6595 41.6245 64.1488L41.512 64.5619C41.445 64.8232 41.3978 65.0454 41.262 65.727L41.1809 66.1339C40.7728 68.1812 40.4079 69.3735 39.6138 70.7489C38.9358 71.9232 38.2494 72.6562 36.7407 73.9877L36.1438 74.5139C35.6968 74.9126 35.3492 75.2399 35.0651 75.5387L57.7931 88.6572C58.137 88.857 58.3899 89.1825 58.4987 89.5651C58.6074 89.9477 58.5634 90.3576 58.3759 90.7084C58.1885 91.0592 57.8722 91.3236 57.4937 91.4458C57.1152 91.5681 56.704 91.5387 56.3468 91.3639L56.258 91.3161L32.1032 77.3737C32.0789 77.3615 32.0549 77.3486 32.0313 77.335L31.9621 77.2916L27.1044 74.4891C27.0849 74.4788 27.0657 74.4682 27.0466 74.4571L26.9917 74.4226L22.1044 71.603L22.0633 71.5793L22.0223 71.5543L12.028 65.7854L11.863 65.9403C10.167 67.5585 8.69702 69.3982 7.49292 71.4096L7.26668 71.793C3.24879 78.7522 2.6991 87.0099 5.55613 94.335L5.61037 94.4702L33.663 110.664L33.8067 110.643C41.4699 109.47 48.2629 104.977 52.3017 98.1806L52.4706 97.8915C52.9848 97.0009 53.4451 96.0861 53.8499 95.151C54.017 94.7857 54.3207 94.5005 54.6957 94.3565C55.0707 94.2126 55.4872 94.2213 55.8558 94.3808C56.2245 94.5404 56.5159 94.838 56.6677 95.21C56.8194 95.5819 56.8193 95.9985 56.6675 96.3704C56.2161 97.4137 55.7033 98.4339 55.13 99.4269C50.5169 107.417 42.5239 112.633 33.5458 113.78C33.2544 113.817 32.9594 113.77 32.6953 113.645L32.5838 113.586L3.61875 96.8662C3.32777 96.6982 3.1003 96.4394 2.97025 96.1295C-0.526934 87.7808 -0.00648689 78.2501 4.60751 70.2584C6.26561 67.3865 8.36492 64.858 10.828 62.7363C11.0553 62.5404 11.3351 62.4154 11.6327 62.3768C11.9303 62.3382 12.2327 62.3877 12.5025 62.5191L12.5982 62.5694L22.379 68.215C22.8167 67.6883 23.3493 67.1679 24.0899 66.5056L25.0241 65.6795C26.0847 64.7281 26.5614 64.1976 26.9874 63.4597C27.5427 62.4979 27.8258 61.6152 28.1499 60.035L28.4453 58.5753C28.4995 58.3209 28.5611 58.0681 28.6301 57.8173C28.8521 56.9852 29.1254 56.2777 29.5064 55.6178C29.6633 55.3461 29.8373 55.0856 30.0298 54.8302L26.5161 52.8016C26.1721 52.6019 25.919 52.2764 25.8102 51.8938C25.7013 51.5112 25.7452 51.1012 25.9326 50.7504C26.12 50.3995 26.4363 50.135 26.8149 50.0127C27.1934 49.8904 27.6046 49.9197 27.9619 50.0946L28.0515 50.1422L32.2547 52.5689L32.4742 52.3748C33.2206 51.7132 33.7583 51.1971 34.1888 50.6974L29.3451 47.9016C29.0012 47.7018 28.7483 47.3763 28.6395 46.9937C28.5308 46.6111 28.5748 46.2012 28.7623 45.8504C28.9497 45.4996 29.266 45.2352 29.6445 45.113C30.023 44.9907 30.4342 45.0201 30.7914 45.1949L30.8802 45.2427L71.2003 68.5215L71.1998 68.5212ZM20.4504 74.4905C20.6881 74.6223 20.8971 74.8002 21.0654 75.0137C21.2336 75.2272 21.3576 75.472 21.4302 75.7339C21.5028 75.9958 21.5225 76.2696 21.4882 76.5392C21.4538 76.8088 21.3662 77.0689 21.2303 77.3043C21.0944 77.5397 20.913 77.7456 20.6966 77.9102C20.4803 78.0747 20.2334 78.1945 19.9702 78.2626C19.7071 78.3307 19.4331 78.3457 19.1641 78.3068C18.8951 78.2678 18.6366 78.1757 18.4035 78.0358L17.8839 77.7358C17.6463 77.604 17.4372 77.4261 17.269 77.2126C17.1008 76.9992 16.9768 76.7543 16.9042 76.4924C16.8316 76.2305 16.8119 75.9567 16.8462 75.6871C16.8805 75.4175 16.9682 75.1574 17.1041 74.922C17.24 74.6867 17.4214 74.4807 17.6377 74.3162C17.8541 74.1516 18.101 74.0318 18.3641 73.9637C18.6272 73.8956 18.9013 73.8806 19.1703 73.9195C19.4393 73.9585 19.6978 74.0506 19.9308 74.1905L20.4504 74.4905ZM26.4835 77.973C26.9438 78.2493 27.2771 78.6954 27.4116 79.2152C27.5461 79.735 27.471 80.2868 27.2026 80.7517C26.9342 81.2167 26.4938 81.5576 25.9764 81.701C25.4591 81.8443 24.9061 81.7787 24.4366 81.5183L23.917 81.2183C23.6793 81.0865 23.4702 80.9086 23.302 80.6951C23.1338 80.4816 23.0098 80.2368 22.9372 79.9749C22.8646 79.713 22.8449 79.4392 22.8792 79.1696C22.9136 78.9 23.0012 78.6399 23.1371 78.4045C23.273 78.1691 23.4544 77.9632 23.6708 77.7986C23.8871 77.6341 24.134 77.5143 24.3971 77.4462C24.6603 77.3781 24.9343 77.3631 25.2033 77.402C25.4723 77.441 25.7308 77.5331 25.9639 77.673L26.4835 77.973ZM32.5165 81.4555C32.7542 81.5873 32.9632 81.7652 33.1314 81.9786C33.2996 82.1921 33.4237 82.437 33.4962 82.6989C33.5688 82.9608 33.5885 83.2346 33.5542 83.5042C33.5199 83.7738 33.4322 84.0339 33.2963 84.2692C33.1604 84.5046 32.979 84.7106 32.7627 84.8751C32.5464 85.0396 32.2994 85.1595 32.0363 85.2275C31.7732 85.2956 31.4991 85.3107 31.2302 85.2717C30.9612 85.2328 30.7026 85.1407 30.4696 85.0008L29.95 84.7008C29.4897 84.4244 29.1564 83.9783 29.0219 83.4586C28.8874 82.9388 28.9624 82.387 29.2309 81.922C29.4993 81.4571 29.9396 81.1162 30.457 80.9728C30.9744 80.8294 31.5274 80.895 31.9969 81.1555L32.5165 81.4555ZM38.5493 84.9371C39.0195 85.2086 39.3626 85.6557 39.5032 86.1802C39.6437 86.7046 39.5701 87.2634 39.2986 87.7336C39.0272 88.2039 38.58 88.547 38.0556 88.6875C37.5311 88.828 36.9723 88.7544 36.5021 88.483L35.9825 88.183C35.7448 88.0511 35.5358 87.8733 35.3676 87.6598C35.1994 87.4463 35.0754 87.2015 35.0028 86.9395C34.9302 86.6776 34.9105 86.4039 34.9448 86.1343C34.9791 85.8646 35.0668 85.6046 35.2027 85.3692C35.3386 85.1338 35.52 84.9278 35.7363 84.7633C35.9526 84.5988 36.1996 84.479 36.4627 84.4109C36.7258 84.3428 36.9999 84.3278 37.2689 84.3667C37.5378 84.4056 37.7964 84.4977 38.0294 84.6376L38.5493 84.9371ZM44.5821 88.4201C44.8217 88.5509 45.0328 88.7282 45.2029 88.9418C45.373 89.1553 45.4987 89.4007 45.5726 89.6635C45.6464 89.9264 45.6669 90.2013 45.6329 90.4722C45.5989 90.7431 45.5111 91.0045 45.3746 91.2409C45.2381 91.4773 45.0557 91.6841 44.8381 91.849C44.6205 92.0139 44.3721 92.1336 44.1075 92.201C43.843 92.2685 43.5676 92.2823 43.2976 92.2418C43.0277 92.2013 42.7685 92.1071 42.5355 91.9649L42.0158 91.6649C41.5555 91.3886 41.2222 90.9425 41.0877 90.4227C40.9532 89.9029 41.0283 89.3511 41.2967 88.8862C41.5652 88.4212 42.0055 88.0803 42.5229 87.9369C43.0403 87.7936 43.5933 87.8592 44.0627 88.1196L44.5821 88.4201ZM39.1719 53.5744L36.8856 52.2544C36.3268 52.9738 35.6604 53.6421 34.7319 54.4751L33.6214 55.4662L33.5567 55.5265C33.5202 55.5641 33.4819 55.5997 33.4417 55.6333C33.2712 55.7919 33.1546 55.911 32.9995 56.0729C32.6414 56.4495 32.3713 56.7973 32.1661 57.1527C31.9627 57.505 31.8001 57.9044 31.6575 58.3937L31.5568 58.7602C31.5081 58.9489 31.4719 59.104 31.4106 59.3998L31.2134 60.3785C30.8058 62.4261 30.441 63.6184 29.6469 64.9938C28.9968 66.1198 28.3391 66.8389 26.958 68.0694L26.1764 68.7585C25.8029 69.0858 25.4429 69.428 25.0971 69.7843L27.3626 71.0923C27.8007 70.5651 28.3341 70.0444 29.0743 69.3827L29.8603 68.6885C31.0254 67.6534 31.5261 67.1076 31.9716 66.336C32.4975 65.4251 32.7794 64.5853 33.0837 63.1558L33.4298 61.4524C33.4838 61.1979 33.5452 60.945 33.614 60.6941C33.8365 59.8623 34.1099 59.1548 34.4909 58.4949C34.7861 57.9836 35.1417 57.5093 35.5714 57.0362L35.76 56.8332C36.0417 56.5372 36.2135 56.3669 36.591 56.0251L37.4589 55.2514C38.2045 54.59 38.7424 54.0747 39.1729 53.575L39.1719 53.5744ZM44.156 56.452L41.8687 55.1314C41.3539 55.7951 40.7465 56.4151 39.9278 57.1611L38.6047 58.344C38.3257 58.5979 38.1877 58.7351 37.9831 58.9502C37.6245 59.3265 37.3544 59.6743 37.1492 60.0297C36.9458 60.382 36.7832 60.7814 36.6406 61.2707L36.5399 61.6372C36.4789 61.8736 36.4378 62.0563 36.3428 62.528L36.197 63.2558C35.7889 65.3031 35.4246 66.4957 34.6305 67.8711C33.9525 69.0454 33.2655 69.7781 31.7569 71.1096L31.4875 71.3469C30.8775 71.8815 30.4308 72.2928 30.0802 72.6613L32.3473 73.9689C32.7843 73.4424 33.3177 72.9217 34.0579 72.26L34.8439 71.5658C35.9582 70.5755 36.4649 70.0338 36.8963 69.313L36.9553 69.2133C37.4812 68.3024 37.763 67.4626 38.0668 66.0328L38.4134 64.3297C38.4674 64.0752 38.5288 63.8223 38.5976 63.5714C38.8201 62.7396 39.0935 62.0321 39.4745 61.3722C39.7697 60.8609 40.1253 60.3866 40.5551 59.9135L40.8589 59.59C41.1152 59.3249 41.3821 59.0701 41.6587 58.8262L42.4425 58.1287C43.1881 57.4673 43.726 56.952 44.1566 56.4523L44.156 56.452ZM68.3709 73.4199C68.7149 73.6196 68.968 73.945 69.0769 74.3277C69.1857 74.7103 69.1418 75.1202 68.9544 75.4711C68.767 75.822 68.4507 76.0865 68.0722 76.2088C67.6936 76.3311 67.2824 76.3017 66.9251 76.1268L66.8358 76.0787L46.0844 64.0979C45.7427 63.8971 45.4919 63.5718 45.3845 63.1902C45.2772 62.8086 45.3215 62.4003 45.5083 62.0507C45.6951 61.7011 46.0099 61.4373 46.3868 61.3145C46.7637 61.1917 47.1735 61.2194 47.5304 61.3918L47.6195 61.4391L68.3714 73.4202L68.3709 73.4199Z" fill="#00B373"/>
</g>
</g>
<defs>
<clipPath id="clip0_3461_116415">
<rect width="144" height="160" fill="white" transform="translate(0.987305)"/>
</clipPath>
<clipPath id="clip1_3461_116415">
<rect width="60" height="60" fill="white" transform="translate(60.9863 91.0535) rotate(-20.5418)"/>
</clipPath>
<clipPath id="clip2_3461_116415">
<rect width="60" height="60" fill="white" transform="translate(74.5156 2) rotate(15)"/>
</clipPath>
<clipPath id="clip3_3461_116415">
<rect width="60" height="60" fill="white" transform="translate(21.9863 39) rotate(30)"/>
</clipPath>
</defs>
</svg>
