<svg class="inline-block pr-4 w-auto max-h-8" width="24" height="28" viewBox="0 0 24 28" fill="none" xmlns="http://www.w3.org/2000/svg">
<path fill-rule="evenodd" clip-rule="evenodd" d="M17.0597 15.0755L17.1784 15.1209C17.4364 15.2229 17.6918 15.3312 17.9445 15.4457C18.5983 15.7416 19.2529 16.0818 19.8675 16.4635C21.2703 17.3343 22.2694 18.2888 22.6843 19.3721C23.1763 20.6545 23.2712 21.6505 23.2396 23.6768L23.2284 24.3824L23.227 24.6453C23.227 24.8369 23.1509 25.0207 23.0154 25.1562C22.8799 25.2916 22.6962 25.3677 22.5046 25.3677C22.313 25.3677 22.1292 25.2916 21.9938 25.1562C21.8583 25.0207 21.7822 24.8369 21.7822 24.6453L21.7855 24.2164L21.7967 23.5195C21.8197 21.7639 21.7318 20.923 21.3353 19.8893C21.0601 19.1708 20.2637 18.4097 19.1056 17.691C18.5496 17.3457 17.9492 17.0338 17.3486 16.7619L17.1722 16.6835L16.904 17.2486L16.7422 17.5846C16.1982 18.7152 15.634 19.836 15.0496 20.9463C14.8585 21.3081 14.6641 21.6682 14.4663 22.0265L14.3529 22.2309C13.724 23.3579 13.1643 24.2648 12.6864 24.9105C12.6192 25.0012 12.5317 25.075 12.4308 25.1258C12.33 25.1766 12.2187 25.203 12.1058 25.203C11.9929 25.203 11.8816 25.1766 11.7807 25.1258C11.6799 25.075 11.5924 25.0012 11.5252 24.9105C11.0472 24.2646 10.4875 23.3576 9.85837 22.2301L9.63045 21.8179C9.47729 21.5379 9.32105 21.2467 9.16201 20.9463C8.57753 19.8361 8.01315 18.7154 7.46913 17.5849L7.15413 16.9277L7.03877 16.6835L6.86265 16.7619C6.26233 17.0335 5.66229 17.3455 5.10621 17.6907C3.94813 18.4097 3.1518 19.1705 2.87684 19.8895C2.45516 20.9888 2.288 23.0001 2.25244 25.7561L2.24685 26.2864H22.7098C22.8935 26.2864 23.0703 26.3564 23.2043 26.4821C23.3382 26.6078 23.4192 26.7799 23.4308 26.9632L23.4322 27.0091C23.4321 27.1928 23.3621 27.3695 23.2364 27.5034C23.1107 27.6373 22.9387 27.7182 22.7554 27.7298L22.7098 27.7315H1.5222C1.42731 27.7315 1.33335 27.7128 1.24569 27.6765C1.15803 27.6402 1.07838 27.5869 1.01129 27.5198C0.944207 27.4527 0.891001 27.373 0.854714 27.2854C0.818426 27.1977 0.799768 27.1037 0.799805 27.0088L0.801205 26.4236C0.817445 23.1012 0.982645 20.7931 1.52752 19.3724C1.94248 18.2885 2.94153 17.334 4.34433 16.4632C4.95865 16.0815 5.61301 15.7413 6.26709 15.4454C6.44993 15.3625 6.62269 15.288 6.78285 15.2214L7.06901 15.1066L7.15133 15.0752C7.32199 15.0124 7.51009 15.0162 7.67805 15.086C7.84601 15.1557 7.98148 15.2863 8.05741 15.4515L8.24949 15.8631L8.53341 16.464C8.58381 16.5699 8.63589 16.6779 8.68909 16.7888L8.77001 16.9568C9.3063 18.0715 9.86266 19.1763 10.4388 20.2709L10.6704 20.7052C10.8179 20.9799 10.9676 21.2535 11.1195 21.5259L11.3141 21.8711C11.52 22.2344 11.7325 22.594 11.9514 22.9497L12.1054 23.1958L12.1742 23.0869C12.4324 22.6753 12.7118 22.2012 13.0095 21.6723L13.091 21.5267C13.3227 21.1107 13.5497 20.6921 13.7719 20.2709C14.2753 19.3154 14.7631 18.3518 15.2352 17.3805L15.4407 16.9568C15.5499 16.7306 15.6538 16.5136 15.7515 16.3075L16.0788 15.6128L16.1536 15.4518C16.2295 15.2866 16.365 15.1561 16.5329 15.0864C16.7007 15.0166 16.8888 15.0127 17.0594 15.0755H17.0597ZM12.1605 3.17047C16.381 3.17047 18.5991 7.49451 17.0034 11.3437C16.93 11.5207 16.7893 11.6613 16.6122 11.7345C16.4352 11.8078 16.2362 11.8077 16.0592 11.7343C15.8822 11.6609 15.7417 11.5201 15.6684 11.3431C15.5952 11.166 15.5952 10.9671 15.6686 10.7901C16.8998 7.82043 15.2556 4.61527 12.1605 4.61527C10.6664 4.61527 9.51397 5.31807 8.75601 6.53551C8.09913 7.59111 7.82277 8.94771 8.00393 9.93947C8.44689 12.3727 10.0826 14.1428 12.8518 15.7279C12.9342 15.775 13.0064 15.8379 13.0644 15.913C13.1225 15.9881 13.1651 16.0738 13.19 16.1654C13.2149 16.2569 13.2215 16.3525 13.2095 16.4466C13.1974 16.5407 13.1669 16.6315 13.1198 16.7138C13.0727 16.7961 13.0098 16.8684 12.9347 16.9264C12.8597 16.9844 12.7739 17.0271 12.6824 17.052C12.5908 17.0768 12.4953 17.0834 12.4012 17.0714C12.3071 17.0594 12.2163 17.0289 12.1339 16.9817C9.03181 15.206 7.11689 13.1343 6.58237 10.1987C6.33597 8.84719 6.68597 7.12687 7.52961 5.77195C8.54041 4.14795 10.1437 3.17075 12.1608 3.17075L12.1605 3.17047ZM12.333 0.280029C15.0316 0.280029 17.0236 1.37931 18.367 3.19483C18.8137 3.80102 19.176 4.46509 19.4439 5.16883C19.4775 5.25647 19.508 5.33991 19.5354 5.41943L19.5858 5.56867L19.6278 5.57567C21.1508 5.84111 22.2058 7.10391 22.348 8.63831L22.3548 8.72231C22.4682 10.3315 21.5405 11.6598 19.9356 11.9591L19.8317 11.9765L19.8034 12.0736C19.7314 12.3074 19.6367 12.5337 19.5206 12.749L19.459 12.8582C18.5784 14.3573 16.8808 14.8638 14.3899 13.9636C14.1725 14.0927 13.9199 14.1501 13.6681 14.1276C13.4162 14.1051 13.1778 14.0039 12.9867 13.8383C12.7956 13.6727 12.6615 13.4512 12.6034 13.2051C12.5453 12.959 12.5661 12.7009 12.663 12.4673C12.7598 12.2337 12.9277 12.0366 13.1429 11.9038C13.3581 11.771 13.6096 11.7093 13.8618 11.7275C14.114 11.7457 14.3541 11.8428 14.548 12.0051C14.7419 12.1674 14.8797 12.3866 14.942 12.6317C16.7436 13.288 17.7112 12.9817 18.2133 12.1263C18.3284 11.9305 18.4107 11.7155 18.4639 11.4996L18.484 11.412C18.4952 11.3582 18.5028 11.3143 18.507 11.2829L18.5112 11.2454C18.5248 11.0637 18.6067 10.8938 18.7403 10.7698C18.8739 10.6459 19.0494 10.577 19.2316 10.577C20.3864 10.577 20.9861 9.85491 20.9136 8.82395C20.8394 7.77171 20.091 6.96895 19.0244 6.96895C18.8663 6.96894 18.7126 6.91706 18.5868 6.82126C18.461 6.72547 18.3701 6.59105 18.3281 6.43863L18.2987 6.31543C18.242 6.10191 18.1739 5.8916 18.0946 5.68543C17.8734 5.104 17.5745 4.55524 17.2058 4.05415C16.1234 2.59199 14.552 1.72483 12.3327 1.72483C9.99361 1.72483 8.32957 2.56987 7.18241 3.98611C6.79819 4.4618 6.48246 4.98892 6.24441 5.55215C6.18141 5.70055 6.12905 5.83915 6.08649 5.96655L6.05625 6.05923C6.04195 6.10449 6.0286 6.15005 6.01621 6.19587L6.00921 6.22303C5.97248 6.38221 5.88288 6.52425 5.75504 6.62596C5.62719 6.72766 5.46865 6.78303 5.30529 6.78303C4.15141 6.78303 3.33857 7.63255 3.25037 8.73743C3.16413 9.81655 3.79973 10.577 5.03705 10.577C5.13191 10.577 5.22585 10.5957 5.3135 10.632C5.40114 10.6683 5.48078 10.7215 5.54786 10.7886C5.61494 10.8557 5.66815 10.9353 5.70446 11.023C5.74076 11.1106 5.75945 11.2046 5.75945 11.2994C5.75945 11.3943 5.74076 11.4882 5.70446 11.5759C5.66815 11.6635 5.61494 11.7432 5.54786 11.8102C5.48078 11.8773 5.40114 11.9305 5.3135 11.9668C5.22585 12.0031 5.13191 12.0218 5.03705 12.0218C2.92164 12.0218 1.6594 10.5109 1.81004 8.62263C1.93968 7.00143 3.06501 5.66303 4.68649 5.38947L4.76069 5.37771L4.78645 5.30771C4.81445 5.23351 4.84525 5.15483 4.87885 5.07251L4.91413 4.98851C5.20482 4.3009 5.59049 3.65745 6.05989 3.07695C7.47333 1.33171 9.54365 0.280029 12.3327 0.280029H12.333Z" fill="white"></path>
</svg>