<svg class="inline-block pr-4 w-auto max-h-8" width="28" height="26" viewBox="0 0 28 26" fill="none" xmlns="http://www.w3.org/2000/svg">
<path fill-rule="evenodd" clip-rule="evenodd" d="M18.978 3.55087C23.1598 3.55087 26.6494 7.22531 27.6762 12.6212C28.0318 14.4776 27.4645 15.9344 25.6117 16.8794L25.2276 17.0665C24.494 17.4187 22.7412 18.2509 20.2063 19.4504L11.1343 23.7386C10.9647 23.8173 10.7711 23.8274 10.5942 23.7665C10.4173 23.7057 10.2709 23.5788 10.1855 23.4123C10.1002 23.2459 10.0826 23.0528 10.1364 22.8737C10.1903 22.6946 10.3114 22.5432 10.4744 22.4514L24.4287 15.8443C24.6387 15.7437 24.7899 15.6709 24.879 15.6275C26.1745 14.9945 26.5016 14.1819 26.2543 12.8925C25.3463 8.11963 22.3819 4.99819 18.978 4.99819C13.6823 4.99819 9.41178 11.4768 9.32694 19.7987L9.32554 20.0513C9.32554 23.1601 7.34874 25.243 4.80942 25.2707C2.25974 25.2987 0.277344 23.2444 0.277344 20.107C0.277344 12.9001 2.58594 7.29587 6.85174 4.62243C6.93228 4.57056 7.02231 4.53519 7.11662 4.51837C7.21092 4.50156 7.30763 4.50363 7.40113 4.52447C7.49463 4.54531 7.58306 4.5845 7.6613 4.63977C7.73954 4.69505 7.80603 4.7653 7.85692 4.84646C7.9078 4.92763 7.94207 5.01808 7.95773 5.11259C7.97339 5.20709 7.97014 5.30377 7.94816 5.39701C7.92618 5.49024 7.88591 5.57819 7.82969 5.65575C7.77346 5.73331 7.7024 5.79894 7.62062 5.84883C3.8395 8.21819 1.72466 13.3523 1.72466 20.107C1.72466 22.4537 3.06474 23.8427 4.79346 23.8237C6.50006 23.8049 7.83706 22.4229 7.87738 20.1565L7.87822 20.0513C7.87822 10.9065 12.6668 3.55087 18.978 3.55087ZM16.8567 0.542826C17.6715 0.532746 18.2472 0.990826 18.7072 1.80479C18.7564 1.88764 18.7885 1.97947 18.8017 2.07491C18.815 2.17034 18.809 2.26745 18.7842 2.36055C18.7594 2.45364 18.7162 2.54085 18.6573 2.61706C18.5983 2.69326 18.5248 2.75693 18.4409 2.80433C18.357 2.85173 18.2645 2.88191 18.1688 2.89309C18.0731 2.90428 17.9762 2.89625 17.8836 2.86947C17.7911 2.84269 17.7048 2.79771 17.6299 2.73715C17.5549 2.6766 17.4928 2.60169 17.4472 2.51683C17.2199 2.11503 17.06 1.98763 16.8749 1.98987C16.6957 1.99211 16.591 2.05651 16.3681 2.32531L16.0663 2.70191C15.8983 2.90631 15.7471 3.06787 15.5723 3.21795C15.0765 3.64411 14.4493 3.80931 13.6835 3.81351C13.4443 3.81491 13.2231 3.80231 12.9261 3.77487L12.6119 3.74323C11.8125 3.66007 11.4454 3.79755 11.2603 4.09491C11.0837 4.37911 11.0167 4.79771 10.9798 5.71275C10.9162 7.26815 9.89618 8.18431 8.4399 8.53879L8.35366 8.55923C7.69398 8.70819 7.58366 8.99099 7.77798 9.88223L7.79394 9.95391C7.81326 10.0382 7.83398 10.1227 7.8603 10.2247L7.9919 10.7194C8.2271 11.6165 8.25426 11.889 8.10362 12.3339C7.85274 13.0773 7.37506 13.4363 6.39898 13.8711L6.01706 14.0385C5.46854 14.2849 5.2983 14.4188 5.26862 14.5677C5.2185 14.8181 5.36466 15.123 5.85746 15.7633L6.10582 16.0809C6.76102 16.9248 6.96682 17.2989 6.98642 17.9165C6.9896 18.0125 6.98464 18.1085 6.97158 18.2035C6.77698 19.6002 5.36662 20.6311 3.96746 20.5376C3.78008 20.5248 3.60501 20.4397 3.47922 20.3002C3.35344 20.1608 3.28679 19.9779 3.29337 19.7902C3.29995 19.6024 3.37924 19.4247 3.51448 19.2943C3.64972 19.164 3.83033 19.0913 4.01814 19.0917L4.06406 19.0934C4.73606 19.1382 5.45286 18.6146 5.53798 18.0047C5.53983 17.9908 5.54048 17.9768 5.53994 17.9627C5.53322 17.7522 5.3711 17.4862 4.83154 16.8013C3.97614 15.7155 3.67822 15.1409 3.8493 14.2841C4.00274 13.5169 4.42946 13.1675 5.39686 12.7304L5.72446 12.5865C6.40178 12.2911 6.6507 12.1133 6.73246 11.8705C6.7571 11.798 6.71958 11.5723 6.5569 10.956L6.45778 10.5819C6.43123 10.48 6.40622 10.3777 6.38274 10.2751C6.01874 8.67571 6.37742 7.55795 7.95074 7.16707L8.03474 7.14747C8.96658 6.93719 9.50026 6.47267 9.53358 5.65395L9.54366 5.42715C9.59406 4.40375 9.69654 3.86867 10.0314 3.33051C10.5276 2.53251 11.4051 2.18727 12.6539 2.29339L13.0341 2.33119C13.3001 2.35639 13.4866 2.36731 13.6753 2.36619C14.1301 2.36339 14.4411 2.28163 14.6293 2.11979C14.7261 2.0349 14.8159 1.94239 14.8978 1.84315L15.0107 1.70539L15.1994 1.46823C15.6967 0.853066 16.1382 0.551786 16.857 0.542826H16.8567Z" fill="white"></path>
</svg>