<svg class="inline-block pr-4 w-auto max-h-8" width="28" height="21" viewBox="0 0 28 21" fill="none" xmlns="http://www.w3.org/2000/svg">
<path fill-rule="evenodd" clip-rule="evenodd" d="M17.3561 10.8155L17.4754 10.8681C17.5963 10.923 17.7568 11.0003 17.9458 11.0988C18.3868 11.3264 18.8115 11.5845 19.2167 11.8711C20.1536 12.5389 20.8256 13.2764 21.1067 14.1178C21.331 14.7909 21.4354 15.373 21.4659 16.0229L21.4715 16.1741C21.4771 16.3569 21.4777 16.5017 21.4743 16.7551L21.4643 17.4176C21.4637 17.4839 21.4634 17.545 21.4634 17.6102C21.4634 17.8018 21.3873 17.9856 21.2518 18.121C21.1164 18.2565 20.9326 18.3326 20.741 18.3326C20.5494 18.3326 20.3657 18.2565 20.2302 18.121C20.0947 17.9856 20.0186 17.8018 20.0186 17.6102L20.02 17.3532L20.0312 16.5851C20.0321 16.4401 20.0309 16.3362 20.0273 16.2164C20.0105 15.6401 19.931 15.1602 19.7361 14.575C19.5723 14.0847 19.0887 13.5541 18.3781 13.0473C18.0777 12.8349 17.7646 12.6408 17.4407 12.4663L17.4051 12.4473L17.3956 12.4641C15.8139 15.1448 12.3508 15.1401 10.7425 12.5369L10.6882 12.4467L10.6521 12.4663C10.3822 12.6121 10.1197 12.7712 9.86554 12.9429L9.71546 13.0473C9.00482 13.5541 8.52182 14.0845 8.35802 14.5747C8.1049 15.3349 7.99402 16.8357 7.96434 18.8215L7.95874 19.3277H20.8247C21.0085 19.3277 21.1853 19.3977 21.3193 19.5235C21.4532 19.6493 21.5342 19.8214 21.5457 20.0048L21.5471 20.0504C21.5471 20.2341 21.4772 20.4109 21.3515 20.5449C21.2257 20.6788 21.0537 20.7598 20.8704 20.7714L20.8247 20.7728H7.18678L7.13442 20.7714C6.58478 20.7401 6.37338 20.2204 6.50022 19.8135L6.51142 19.7802L6.51338 19.3423C6.53018 16.9589 6.63826 15.2322 6.9639 14.1909L6.98742 14.1175C7.26826 13.2764 7.93998 12.5391 8.87658 11.8711C9.28149 11.5845 9.70588 11.3264 10.1467 11.0988L10.3466 10.9972C10.4747 10.9329 10.6047 10.8723 10.7363 10.8155C10.8248 10.7781 10.9198 10.7587 11.0158 10.7584C11.1119 10.7582 11.207 10.7771 11.2956 10.814C11.3843 10.8509 11.4647 10.9052 11.5321 10.9736C11.5995 11.0419 11.6526 11.1231 11.6883 11.2122C12.6571 13.6309 15.4263 13.6594 16.4035 11.2128C16.4392 11.1235 16.4923 11.0423 16.5597 10.9738C16.6272 10.9053 16.7076 10.851 16.7963 10.814C16.885 10.777 16.9802 10.758 17.0764 10.7583C17.1725 10.7585 17.2676 10.778 17.3561 10.8155ZM3.41266 13.3066C3.46751 13.384 3.50657 13.4715 3.52762 13.564C3.54866 13.6565 3.55128 13.7523 3.53531 13.8458C3.51935 13.9393 3.48512 14.0288 3.43457 14.1091C3.38403 14.1894 3.31816 14.2589 3.24074 14.3138C2.65386 14.7293 2.19746 15.3666 2.02526 16.2889C1.97902 16.539 1.9398 16.7904 1.90766 17.0427C1.85469 17.4575 1.81248 17.8736 1.7811 18.2906L1.7671 18.4799H4.5153C4.699 18.4799 4.8758 18.5499 5.00974 18.6756C5.14368 18.8013 5.22469 18.9733 5.2363 19.1567L5.2377 19.2023C5.23771 19.386 5.16778 19.5627 5.04212 19.6967C4.91645 19.8306 4.7445 19.9116 4.56122 19.9233L4.5153 19.9247H1.00214C0.904987 19.9247 0.808837 19.9051 0.719438 19.8671C0.63004 19.829 0.549229 19.7734 0.48184 19.7034C0.414452 19.6334 0.36187 19.5506 0.32724 19.4598C0.29261 19.369 0.276643 19.2722 0.280296 19.1751L0.289536 18.9721L0.306616 18.6692C0.311096 18.5981 0.315856 18.5247 0.321176 18.4491C0.358136 17.9073 0.408536 17.3655 0.474896 16.8565C0.513816 16.5574 0.556936 16.2783 0.605096 16.0226C0.851496 14.7027 1.53106 13.7541 2.4055 13.1347C2.48291 13.0799 2.57038 13.0408 2.66289 13.0197C2.75541 12.9987 2.85116 12.9961 2.94469 13.012C3.03821 13.028 3.12768 13.0622 3.20797 13.1128C3.28827 13.1633 3.35782 13.2292 3.41266 13.3066ZM5.63726 4.29118C8.33842 4.29118 10.1195 7.27206 8.7853 10.1667C8.70422 10.3393 8.55819 10.4728 8.37906 10.5382C8.19992 10.6035 8.00222 10.5954 7.82904 10.5156C7.65587 10.4358 7.52128 10.2907 7.45463 10.1121C7.38797 9.93341 7.39465 9.73565 7.47322 9.5619C8.37566 7.60358 7.25986 5.73598 5.63726 5.73598C4.34282 5.73598 3.23514 7.06934 3.23514 8.7751C3.23514 10.4531 4.30614 11.7728 5.57174 11.817L5.63726 11.8181C5.82885 11.8181 6.01259 11.8943 6.14807 12.0297C6.28355 12.1652 6.35966 12.349 6.35966 12.5405C6.35966 12.7321 6.28355 12.9159 6.14807 13.0514C6.01259 13.1868 5.82885 13.2629 5.63726 13.2629C3.47958 13.2629 1.79034 11.2268 1.79034 8.7751C1.79034 6.32454 3.47958 4.29118 5.63754 4.29118H5.63726ZM14.086 0.919983C18.4338 0.919983 19.6115 6.96574 16.3587 9.71842C16.2863 9.7797 16.2025 9.82611 16.1121 9.855C16.0218 9.88389 15.9266 9.8947 15.832 9.88681C15.7375 9.87892 15.6454 9.85249 15.5611 9.80901C15.4767 9.76554 15.4018 9.70588 15.3405 9.63344C15.2792 9.56101 15.2328 9.47721 15.2039 9.38684C15.175 9.29646 15.1642 9.20128 15.1721 9.10673C15.18 9.01218 15.2065 8.92011 15.2499 8.83578C15.2934 8.75145 15.3531 8.6765 15.4255 8.61522C16.4791 7.7237 16.9627 6.14618 16.6819 4.70362C16.4019 3.26582 15.4639 2.36478 14.0863 2.36478C12.1935 2.36478 11.1645 4.21726 11.4621 6.11678C11.7617 7.99362 12.8515 9.3463 14.7081 10.5685C14.788 10.6204 14.8568 10.6875 14.9106 10.7661C14.9644 10.8447 15.0021 10.9331 15.0216 11.0263C15.0411 11.1195 15.042 11.2157 15.0242 11.3092C15.0064 11.4028 14.9703 11.4919 14.9179 11.5714C14.8656 11.651 14.798 11.7194 14.7191 11.7727C14.6402 11.8261 14.5516 11.8633 14.4583 11.8822C14.3649 11.9012 14.2688 11.9015 14.1753 11.8831C14.0819 11.8648 13.993 11.8281 13.9138 11.7753C11.7499 10.3509 10.4093 8.6869 10.0349 6.34246C9.61606 3.6693 11.1429 0.919983 14.086 0.919983ZM25.6948 13.2002C26.532 13.8274 27.1707 14.7556 27.4067 16.0221C27.4551 16.2785 27.4983 16.5577 27.5372 16.8565C27.5921 17.2809 27.636 17.7281 27.6705 18.1789L27.6901 18.4497C27.7004 18.6009 27.7091 18.7437 27.7161 18.8758L27.7301 19.176C27.737 19.3642 27.6702 19.5477 27.5438 19.6873C27.4175 19.827 27.2416 19.9117 27.0536 19.9236L27.0085 19.925H23.4962C23.3085 19.9252 23.128 19.8522 22.9931 19.7216C22.8582 19.5911 22.7794 19.4131 22.7735 19.2254C22.7676 19.0378 22.8349 18.8551 22.9613 18.7163C23.0877 18.5774 23.2632 18.4933 23.4506 18.4816L23.4962 18.4802H26.2436L26.2301 18.2903C26.2048 17.9542 26.1728 17.6186 26.1341 17.2837L26.1044 17.0424C26.0723 16.7898 26.0331 16.5382 25.9868 16.2878C25.8216 15.4027 25.3927 14.7791 24.8285 14.3563C24.6751 14.2415 24.5737 14.0704 24.5465 13.8807C24.5193 13.691 24.5685 13.4983 24.6834 13.345C24.7983 13.1916 24.9694 13.0902 25.1591 13.063C25.3487 13.0358 25.5414 13.0851 25.6948 13.1999V13.2002ZM22.3731 4.29118C24.5319 4.29118 26.2212 6.32426 26.2212 8.7751C26.2212 11.2268 24.5317 13.2629 22.3731 13.2629C22.1854 13.2631 22.0049 13.1902 21.87 13.0596C21.7351 12.929 21.6563 12.751 21.6504 12.5634C21.6445 12.3757 21.7118 12.1931 21.8382 12.0543C21.9646 11.9154 22.1401 11.8312 22.3275 11.8195L22.3731 11.8181C23.6679 11.8181 24.7764 10.4825 24.7764 8.7751C24.7764 7.06934 23.6684 5.73598 22.3731 5.73598C20.7508 5.73598 19.6353 7.60358 20.5375 9.56218C20.6165 9.73604 20.6234 9.93411 20.5568 10.1131C20.4901 10.292 20.3554 10.4373 20.1819 10.5172C20.0084 10.5971 19.8104 10.605 19.6311 10.5393C19.4518 10.4735 19.3058 10.3395 19.2251 10.1664C17.892 7.27178 19.6725 4.29118 22.3731 4.29118Z" fill="white"></path>
</svg>