<svg class="inline-block pr-4 w-auto max-h-8" width="28" height="28" viewBox="0 0 28 28" fill="none" xmlns="http://www.w3.org/2000/svg">
<path fill-rule="evenodd" clip-rule="evenodd" d="M2.17976 10.4968C2.24892 11.3119 2.4116 12.2073 2.6314 12.965L2.73388 12.8622C4.0202 11.5762 5.74724 11.6031 6.84764 12.7287C7.4222 13.3167 7.69996 14.0755 7.65012 14.8455C8.43552 14.785 9.20552 15.0728 9.79548 15.6765C10.37 16.2642 10.6475 17.023 10.598 17.7927C11.3834 17.732 12.1534 18.0201 12.7433 18.6238C13.3778 19.2728 13.65 20.1305 13.5192 20.9814C14.2259 20.9862 14.9072 21.274 15.4411 21.8203C16.5121 22.9159 16.551 24.6063 15.3619 25.8551L15.2972 25.9217L14.4046 26.8149C13.1493 28.0693 11.4181 28.0486 10.3026 26.9585C9.77168 26.4397 9.48496 25.7817 9.4648 25.0963C8.59008 25.255 7.70136 24.9854 7.03356 24.3327C6.43044 23.743 6.1426 22.9733 6.20308 22.1885C5.43308 22.238 4.67372 21.9606 4.086 21.3857C3.4826 20.7957 3.19476 20.0257 3.25552 19.2403C2.48496 19.2907 1.72588 19.013 1.1376 18.4382C0.0310383 17.3565 -0.0146017 15.6698 1.20508 14.391L1.2706 14.3238L1.489 14.106C1.1096 13.1086 0.840238 11.7974 0.739998 10.6194C0.731946 10.5249 0.742592 10.4297 0.77133 10.3393C0.800067 10.2489 0.846334 10.165 0.907487 10.0924C0.96864 10.0199 1.04348 9.96011 1.12774 9.91649C1.212 9.87288 1.30402 9.84628 1.39856 9.83823C1.49309 9.83018 1.58829 9.84082 1.67871 9.86956C1.76913 9.8983 1.85301 9.94457 1.92555 10.0057C1.99809 10.0669 2.05788 10.1417 2.10149 10.226C2.14511 10.3102 2.17171 10.4023 2.17976 10.4968ZM8.55984 0.771831C8.73904 0.950751 8.80428 1.20023 8.75612 1.43095C10.5112 1.28647 12.3323 1.63031 14.0067 2.44259C16.3892 1.28731 19.0884 1.06499 21.4995 1.90135C21.6805 1.96418 21.8291 2.09633 21.9127 2.26875C21.9963 2.44117 22.0079 2.63972 21.9451 2.82073C21.8823 3.00174 21.7501 3.15038 21.5777 3.23395C21.4053 3.31752 21.2067 3.32918 21.0257 3.26635C18.8991 2.52855 16.4838 2.76823 14.3729 3.87591C13.5581 4.30445 12.8093 4.8483 12.1497 5.49067L12.0498 5.58867L9.4522 8.18707C8.55228 9.08699 8.573 9.98831 9.25256 10.5438C9.95844 11.1206 11.0482 11.0624 11.9473 10.2095L12.3701 9.78867L14.3301 7.82867C15.7404 6.41803 18.5474 6.22315 20.0468 7.63239L20.9498 8.53399L25.3794 12.9633C25.5995 12.2045 25.7619 11.3105 25.8314 10.4965C25.847 10.3135 25.9317 10.1434 26.0683 10.0206C26.2049 9.8979 26.3831 9.83177 26.5666 9.83571L26.6123 9.83823C26.7068 9.84627 26.7989 9.87286 26.8831 9.91647C26.9674 9.96009 27.0422 10.0199 27.1034 10.0924C27.1645 10.165 27.2108 10.2488 27.2395 10.3393C27.2683 10.4297 27.2789 10.5249 27.2708 10.6194C27.1709 11.7954 26.9012 13.1047 26.5213 14.1054L26.7408 14.3244C28.0271 15.6104 27.9994 17.3375 26.8732 18.4382C26.306 18.9925 25.5788 19.2706 24.8365 19.2446L24.8183 19.2434L24.8259 19.3031C24.913 20.1078 24.6542 20.8963 24.0741 21.5072L24.017 21.566C23.3584 22.2224 22.4803 22.4945 21.5969 22.3498L21.537 22.3386L21.539 22.361C21.577 22.9702 21.4387 23.5678 21.1251 24.0914L21.0814 24.1622C20.5046 25.066 19.5389 25.4944 18.5301 25.3231L18.4349 25.3049L18.4298 25.3371C18.2616 26.2891 17.6486 27.0806 16.7473 27.4987L16.6737 27.5317C16.5017 27.6062 16.3075 27.6109 16.1321 27.5449C15.9567 27.4789 15.8138 27.3474 15.7336 27.178C15.6534 27.0086 15.6422 26.8147 15.7023 26.6372C15.7624 26.4597 15.8891 26.3125 16.0557 26.2266L16.0986 26.2062C16.786 25.908 17.1539 25.2402 16.9954 24.4315L16.9794 24.3576C16.8322 23.7254 17.5252 23.2424 18.063 23.5792L18.0994 23.6033C18.8193 24.1115 19.4866 23.9757 19.8634 23.3849C20.2739 22.7418 20.167 21.8281 19.4342 21.0528L19.3718 20.9884L19.365 20.9814L17.1964 18.8128C17.0642 18.6805 16.9884 18.502 16.9851 18.3149C16.9818 18.1278 17.0512 17.9468 17.1787 17.8098C17.3062 17.6729 17.4818 17.5908 17.6687 17.5807C17.8555 17.5707 18.0389 17.6336 18.1804 17.7561L18.2182 17.7911L20.3938 19.9667L20.4002 19.9737L20.746 20.3186C21.5328 21.1057 22.4232 21.115 22.9966 20.5426C23.5564 19.9846 23.5617 19.1256 22.827 18.3502L22.7718 18.294L22.4184 17.9403L20.2431 15.7653C20.1099 15.6331 20.0333 15.4544 20.0296 15.2668C20.0259 15.0792 20.0952 14.8975 20.2231 14.7602C20.3509 14.6228 20.5272 14.5406 20.7146 14.5309C20.9019 14.5213 21.0857 14.5849 21.227 14.7083L21.2648 14.7436L23.4396 16.9183L23.7935 17.2725C24.4804 17.9596 25.3061 17.9496 25.8636 17.405C26.4191 16.8617 26.432 16.0587 25.7191 15.3458L25.1742 14.8012C25.1614 14.7894 25.1491 14.777 25.1372 14.7643L19.0929 8.71963C18.207 7.83371 16.2461 7.95579 15.3521 8.85011L13.0312 11.1705C11.6032 12.5985 9.64316 12.729 8.33836 11.6624C7.0036 10.5716 6.94004 8.71655 8.36188 7.23563L8.43076 7.16563L11.028 4.56723C11.4707 4.12448 11.9499 3.71985 12.4605 3.35763C10.6965 2.72763 8.81828 2.67275 7.13828 3.21483L1.51336 8.83975C1.38102 8.97202 1.20253 9.04778 1.01546 9.05109C0.82839 9.05441 0.64733 8.98501 0.510397 8.85751C0.373464 8.73001 0.291339 8.55435 0.281312 8.36752C0.271285 8.18069 0.334138 7.99725 0.456638 7.85583L0.491918 7.81803L6.2364 2.07355L6.242 2.06823L7.5384 0.771831C7.60549 0.704694 7.68515 0.651435 7.77283 0.615098C7.86051 0.578761 7.95449 0.560059 8.0494 0.560059C8.14431 0.560059 8.23829 0.578761 8.32597 0.615098C8.41365 0.651435 8.49331 0.704694 8.5604 0.771831H8.55984ZM12.3701 22.9534L11.4494 23.8735L11.403 23.9217C10.745 24.6203 10.771 25.3964 11.3122 25.9251C11.8549 26.4557 12.6523 26.4789 13.3282 25.8458L13.3826 25.7932L14.2752 24.9C14.9623 24.2132 14.9522 23.3874 14.4076 22.8302C13.87 22.28 13.0771 22.2618 12.3701 22.9534ZM9.65072 19.7777L8.18716 21.2421C8.18371 21.2456 8.18026 21.2492 8.1768 21.2527L8.18772 21.2415C7.4754 21.9533 7.488 22.7563 8.04352 23.2995C8.58588 23.8298 9.38276 23.8534 10.059 23.2192L10.1136 23.1665L11.3271 21.9527L11.3402 21.9398L11.5771 21.7032C12.2645 21.0164 12.2544 20.191 11.7096 19.6335C11.1666 19.078 10.3633 19.0651 9.65072 19.7777ZM8.762 16.6865C8.21908 16.131 7.41576 16.1181 6.70344 16.8301L6.70848 16.8253L6.70372 16.8301L6.69952 16.8337L5.24044 18.2934C4.54604 18.9878 4.54044 19.7684 5.05424 20.3102L5.09568 20.3525C5.65288 20.8974 6.4786 20.9075 7.16544 20.2209L8.629 18.7562C9.31668 18.0688 9.3066 17.2437 8.762 16.6865ZM3.80992 13.8305L3.75504 13.884L2.29176 15.3458C1.57916 16.0584 1.59176 16.862 2.14728 17.405C2.68992 17.9356 3.48736 17.9588 4.16328 17.3252L4.21788 17.2722L4.226 17.2641L5.682 15.8087L5.68676 15.8036L5.682 15.8087C6.36884 15.1213 6.35876 14.2958 5.81444 13.7389C5.28524 13.198 4.50908 13.1722 3.80992 13.8308V13.8305Z" fill="white"></path>
</svg>